<svg width="110" height="79" viewBox="0 0 110 79" fill="none" xmlns="http://www.w3.org/2000/svg">
<g id="infath-logo 1">
<g id="Group">
<path id="Vector" d="M9.51079 66.4083C9.31295 66.4083 9.14337 66.5804 9.14337 66.7813C9.14337 66.9677 9.31295 67.1398 9.51079 67.1398C9.70863 67.1398 9.87821 66.9677 9.87821 66.7813C9.87821 66.5661 9.72277 66.4083 9.51079 66.4083Z" fill="#F2F2F2"/>
<path id="Vector_2" d="M10.4436 66.4083C10.2457 66.4083 10.0761 66.5804 10.0761 66.7813C10.0761 66.9677 10.2457 67.1398 10.4436 67.1398C10.6414 67.1398 10.811 66.9677 10.811 66.7813C10.811 66.5661 10.6414 66.4083 10.4436 66.4083Z" fill="#F2F2F2"/>
<path id="Vector_3" d="M6.4302 62.3349C6.62804 62.3349 6.79762 62.1627 6.79762 61.9619C6.79762 61.7611 6.64217 61.589 6.4302 61.589C6.21822 61.589 6.06277 61.7611 6.06277 61.9619C6.06277 62.1627 6.23235 62.3349 6.4302 62.3349Z" fill="#F2F2F2"/>
<path id="Vector_4" d="M7.34835 62.3349C7.54619 62.3349 7.71577 62.1627 7.71577 61.9619C7.71577 61.7611 7.54619 61.589 7.34835 61.589C7.1505 61.589 6.98093 61.7611 6.98093 61.9619C6.98093 62.1627 7.1505 62.3349 7.34835 62.3349Z" fill="#F2F2F2"/>
<path id="Vector_5" d="M46.3092 62.0193H45.645V64.8593H46.3092V62.0193Z" fill="#F2F2F2"/>
<path id="Vector_6" d="M13.1849 62.3491C13.3828 62.3491 13.5523 62.177 13.5523 61.9762C13.5523 61.7754 13.3969 61.6033 13.1849 61.6033C12.973 61.6033 12.8175 61.7754 12.8175 61.9762C12.8175 62.177 12.9871 62.3491 13.1849 62.3491Z" fill="#F2F2F2"/>
<path id="Vector_7" d="M52.7248 62.3491C52.9227 62.3491 53.0923 62.177 53.0923 61.9762C53.0923 61.7754 52.9368 61.6033 52.7248 61.6033C52.5129 61.6033 52.3574 61.7754 52.3574 61.9762C52.3574 62.177 52.527 62.3491 52.7248 62.3491Z" fill="#F2F2F2"/>
<path id="Vector_8" d="M38.2826 62.3491C38.4805 62.3491 38.65 62.177 38.65 61.9762C38.65 61.7754 38.4946 61.6033 38.2826 61.6033C38.0706 61.6033 37.9152 61.7754 37.9152 61.9762C37.9152 62.177 38.0848 62.3491 38.2826 62.3491Z" fill="#F2F2F2"/>
<path id="Vector_9" d="M21.8195 62.3349C22.0174 62.3349 22.187 62.1627 22.187 61.9619C22.187 61.7611 22.0315 61.589 21.8195 61.589C21.6076 61.589 21.4521 61.7611 21.4521 61.9619C21.4521 62.1627 21.6217 62.3349 21.8195 62.3349Z" fill="#F2F2F2"/>
<path id="Vector_10" d="M22.738 62.3349C22.9358 62.3349 23.1054 62.1627 23.1054 61.9619C23.1054 61.7611 22.9358 61.589 22.738 61.589C22.5401 61.589 22.3705 61.7611 22.3705 61.9619C22.3705 62.1627 22.5401 62.3349 22.738 62.3349Z" fill="#F2F2F2"/>
<path id="Vector_11" d="M49.6447 61.4742H48.9806V65.9925H49.6447V61.4742Z" fill="#F2F2F2"/>
<path id="Vector_12" d="M56.7664 62.966H54.9858L56.8936 61.6751V60.9435L54.8727 62.3205C54.3216 62.6934 54.152 62.9086 54.152 63.3102V63.5827H56.6109C57.1479 63.5827 57.374 63.8409 57.374 64.3286V65.3613H53.0922V62.9516H52.428V65.9781C52.428 66.4658 52.216 66.8244 51.6931 66.8244H51.4953V67.4555H51.7497C52.6682 67.4555 53.0922 66.8961 53.0922 65.9781H58.0382V64.2712C58.0382 63.425 57.6567 62.9373 56.7664 62.9373" fill="#F2F2F2"/>
<path id="Vector_13" d="M47.4115 64.7158C47.4115 65.1461 47.2137 65.3613 46.7897 65.3613H44.5569V65.978H46.8463C47.6376 65.978 48.0757 65.476 48.0757 64.7015V61.4455H47.4115V64.7015V64.7158Z" fill="#F2F2F2"/>
<path id="Vector_14" d="M45.8712 67.3262C45.8712 67.1398 45.9277 67.0537 46.1114 67.0537H46.493V66.7238H46.1255C45.7016 66.7238 45.532 66.8959 45.532 67.3262V67.6992H45.2211V68.0291H46.5919V67.6992H45.8712V67.3406V67.3262Z" fill="#F2F2F2"/>
<path id="Vector_15" d="M63.1965 65.3757H61.7974V63.5828H62.4192C62.9704 63.5828 63.1965 63.8553 63.1965 64.4004V65.3757ZM62.5747 62.966H61.1333V65.3757H59.8755V62.966H59.2114V65.9925C59.2114 66.4802 58.9994 66.8387 58.4765 66.8387H58.2787V67.4699H58.533C59.4516 67.4699 59.8614 66.9105 59.8755 65.9925H63.8606V64.3286C63.8606 63.468 63.465 62.9517 62.5605 62.9517" fill="#F2F2F2"/>
<path id="Vector_16" d="M26.285 61.4742H25.6208V65.9925H26.285V61.4742Z" fill="#F2F2F2"/>
<path id="Vector_17" d="M43.2289 65.3757H42.2962V63.1811H41.632V65.3757H40.6994V63.1811H40.0352V65.3757H38.5796V62.966H37.9296V65.3757H36.9262C36.6012 65.3757 36.4599 65.2466 36.4599 64.888V61.4742H35.7957V64.8019C35.7957 65.6339 36.0642 65.9925 36.9545 65.9925H43.8648V62.9516H43.2006V65.3613L43.2289 65.3757Z" fill="#F2F2F2"/>
<path id="Vector_18" d="M29.3233 63.5828V65.3757H27.9243V64.4004C27.9243 63.8553 28.1504 63.5828 28.7015 63.5828H29.3233ZM27.2601 64.3286V65.9925H29.3233C29.3233 66.5806 29.182 66.8387 28.6026 66.8387H27.7264V67.4555H28.7015C29.719 67.4555 29.9875 66.8101 29.9875 65.849V62.9517H28.5602C27.6558 62.9517 27.2601 63.4537 27.2601 64.3286Z" fill="#F2F2F2"/>
<path id="Vector_19" d="M19.6571 65.3756H16.4493V63.5827H18.8799C19.4169 63.5827 19.643 63.8409 19.643 64.3285V65.3613L19.6571 65.3756ZM13.8067 65.3756H12.4077V64.4003C12.4077 63.8552 12.6338 63.5827 13.1849 63.5827H13.8067V65.3756ZM7.44748 65.3756H6.04846V64.4003C6.04846 63.8552 6.27457 63.5827 6.8257 63.5827H7.44748V65.3756ZM24.0521 65.3756H22.5682V62.9659H21.9182V65.3756H20.3355V64.2999C20.3355 63.4536 19.9539 62.9659 19.0636 62.9659H15.8134V65.3756H14.4991V62.9659H13.0577C12.1533 62.9659 11.7576 63.4679 11.7576 64.3429V65.3756H10.3586V62.9659H9.70853V65.3756H8.1258V62.9659H6.68438C5.77996 62.9659 5.38428 63.4679 5.38428 64.3429V66.0067H24.7162V61.4885H24.0521V65.39V65.3756Z" fill="#F2F2F2"/>
<path id="Vector_20" d="M33.7604 62.9659H32.644V63.5827H33.6191C34.1561 63.5827 34.3822 63.8409 34.3822 64.3286V65.3613H32.1636V65.9781H35.0464V64.2712C35.0464 63.4249 34.6649 62.9373 33.7746 62.9373" fill="#F2F2F2"/>
<path id="Vector_21" d="M6.5148 72.1171C5.73757 72.1171 5.38428 71.7298 5.38428 70.9123C5.38428 70.0947 5.73757 69.7074 6.5148 69.7074H7.16485V70.0516H6.58546C6.04846 70.0516 5.83649 70.2668 5.79409 70.7401H7.12246V71.0844H5.79409C5.82236 71.5721 6.04846 71.7872 6.58546 71.7872H7.19312V72.1314H6.5148V72.1171Z" fill="#F2F2F2"/>
<path id="Vector_22" d="M8.87504 71.0556C8.87504 70.7687 8.76199 70.6397 8.46523 70.6397H8.04128V72.1027H7.65973V70.3241H8.53589C9.03049 70.3241 9.25659 70.5536 9.25659 71.0556V72.1027H8.87504V71.0413V71.0556Z" fill="#F2F2F2"/>
<path id="Vector_23" d="M10.3726 72.117C10.0052 72.117 9.8639 71.9735 9.8639 71.6006V70.6396H9.58127V70.3384H9.8639V69.8794H10.2455V70.3384H10.8531V70.6396H10.2455V71.5863C10.2455 71.7584 10.302 71.8158 10.4716 71.8158H10.8531V72.117H10.3726Z" fill="#F2F2F2"/>
<path id="Vector_24" d="M11.9133 70.3385C12.2948 70.3385 12.4644 70.5106 12.4644 70.8979V71.1274H12.0829V70.9409C12.0829 70.7401 11.9981 70.6541 11.8002 70.6541H11.5741V72.1171H11.1926V70.3385H11.9133Z" fill="#F2F2F2"/>
<path id="Vector_25" d="M13.5382 72.1171C13.0436 72.1171 12.8175 71.8876 12.8175 71.3856V70.3385H13.1991V71.3999C13.1991 71.6868 13.3121 71.8159 13.6089 71.8159H14.0187V70.3528H14.4002V72.1314H13.5382V72.1171Z" fill="#F2F2F2"/>
<path id="Vector_26" d="M15.6721 71.8158C15.8275 71.8158 15.8982 71.7441 15.8982 71.6007C15.8982 71.4429 15.8275 71.3855 15.6721 71.3855H15.3329C15.0079 71.3855 14.81 71.1991 14.81 70.8692C14.81 70.5392 14.9937 70.3528 15.3329 70.3528H16.1949V70.654H15.4318C15.2764 70.654 15.2057 70.7114 15.2057 70.8692C15.2057 71.0269 15.2764 71.0843 15.4318 71.0843H15.7568C16.096 71.0843 16.2797 71.2564 16.2797 71.6007C16.2797 71.9449 16.096 72.117 15.7568 72.117H14.81V71.8158H15.6721Z" fill="#F2F2F2"/>
<path id="Vector_27" d="M17.3113 72.117C16.9439 72.117 16.8026 71.9735 16.8026 71.6006V70.6396H16.52V70.3384H16.8026V69.8794H17.1841V70.3384H17.7918V70.6396H17.1841V71.5863C17.1841 71.7584 17.2407 71.8158 17.4102 71.8158H17.7918V72.117H17.3113Z" fill="#F2F2F2"/>
<path id="Vector_28" d="M20.166 71.0557C20.166 70.7688 20.0529 70.6541 19.7703 70.6541H19.5159V72.1171H19.1344V70.6541H18.4985V72.1171H18.1169V70.3385H19.8127C20.3073 70.3385 20.5334 70.568 20.5334 71.07V72.1171H20.1519V71.0557H20.166Z" fill="#F2F2F2"/>
<path id="Vector_29" d="M21.8051 72.1171C21.2257 72.1171 20.9289 71.8159 20.9289 71.2278C20.9289 70.6397 21.2257 70.3385 21.8051 70.3385H22.3562V70.6397H21.8333C21.4942 70.6397 21.3387 70.7688 21.3104 71.07H22.3279V71.3569H21.3104C21.3104 71.6438 21.4518 71.8159 21.8333 71.8159H22.3703V72.1171H21.8051Z" fill="#F2F2F2"/>
<path id="Vector_30" d="M24.0521 71.0556C24.0521 70.7687 23.9391 70.6397 23.6423 70.6397H23.2183V72.1027H22.8368V70.3241H23.7129C24.2076 70.3241 24.4337 70.5536 24.4337 71.0556V72.1027H24.0521V71.0413V71.0556Z" fill="#F2F2F2"/>
<path id="Vector_31" d="M25.55 72.117C25.1826 72.117 25.0413 71.9735 25.0413 71.6006V70.6396H24.7587V70.3384H25.0413V69.8794H25.4228V70.3384H26.0305V70.6396H25.4228V71.5863C25.4228 71.7584 25.4794 71.8158 25.649 71.8158H26.0305V72.117H25.55Z" fill="#F2F2F2"/>
<path id="Vector_32" d="M27.6981 71.3138C27.5286 71.3138 27.4438 71.3999 27.4438 71.572C27.4438 71.7441 27.5286 71.8302 27.6981 71.8302H28.2775V71.3281H27.6981V71.3138ZM27.5992 72.117C27.2601 72.117 27.0481 71.9162 27.0481 71.5576C27.0481 71.1991 27.2459 70.9982 27.5992 70.9982H28.2775V70.9409C28.2775 70.7114 28.1928 70.6253 27.9808 70.6253H27.1753V70.3241H27.9949C28.4754 70.3241 28.6732 70.5249 28.6732 71.0126V72.1027H27.6134L27.5992 72.117Z" fill="#F2F2F2"/>
<path id="Vector_33" d="M30.3689 71.0556C30.3689 70.7687 30.2559 70.6397 29.9591 70.6397H29.5352V72.1027H29.1536V70.3241H30.0298C30.5244 70.3241 30.7505 70.5536 30.7505 71.0556V72.1027H30.3689V71.0413V71.0556Z" fill="#F2F2F2"/>
<path id="Vector_34" d="M32.1069 70.6397C31.7112 70.6397 31.5275 70.8118 31.5275 71.2277C31.5275 71.6437 31.6971 71.8158 32.1069 71.8158H32.4178V70.6397H32.1069ZM32.008 72.117C31.4286 72.117 31.1318 71.8158 31.1318 71.2277C31.1318 70.6397 31.4286 70.3384 32.008 70.3384H32.4178V69.693H32.7993V72.1027H32.008V72.117Z" fill="#F2F2F2"/>
<path id="Vector_35" d="M35.0464 72.1171C34.4387 72.1171 34.1561 71.8159 34.1561 71.2135V69.7074H34.5376V71.1704C34.5376 71.6151 34.7072 71.7872 35.1453 71.7872H35.7247V72.1314H35.0605L35.0464 72.1171Z" fill="#F2F2F2"/>
<path id="Vector_36" d="M36.0497 72.117H36.4312V70.3384H36.0497V72.117ZM36.0497 70.1233H36.4312V69.693H36.0497V70.1233Z" fill="#F2F2F2"/>
<path id="Vector_37" d="M37.8022 70.6397C37.4065 70.6397 37.2228 70.8118 37.2228 71.2278C37.2228 71.6438 37.3924 71.8159 37.8022 71.8159H38.1131V70.6397H37.8022ZM37.7033 72.1171C37.1239 72.1171 36.8271 71.8159 36.8271 71.2278C36.8271 70.6397 37.1239 70.3385 37.7033 70.3385H38.4946V72.6908H38.1131V72.1028H37.7033V72.1171Z" fill="#F2F2F2"/>
<path id="Vector_38" d="M39.71 72.1171C39.2154 72.1171 38.9893 71.8876 38.9893 71.3856V70.3385H39.3708V71.3999C39.3708 71.6868 39.4839 71.8159 39.7806 71.8159H40.1904V70.3528H40.572V72.1314H39.71V72.1171Z" fill="#F2F2F2"/>
<path id="Vector_39" d="M41.0804 72.117H41.462V70.3384H41.0804V72.117ZM41.0804 70.1233H41.462V69.693H41.0804V70.1233Z" fill="#F2F2F2"/>
<path id="Vector_40" d="M42.833 70.6397C42.4373 70.6397 42.2536 70.8118 42.2536 71.2277C42.2536 71.6437 42.4232 71.8158 42.833 71.8158H43.1439V70.6397H42.833ZM42.7341 72.117C42.1547 72.117 41.8579 71.8158 41.8579 71.2277C41.8579 70.6397 42.1547 70.3384 42.7341 70.3384H43.1439V69.693H43.5254V72.1027H42.7341V72.117Z" fill="#F2F2F2"/>
<path id="Vector_41" d="M44.5855 71.3138C44.4159 71.3138 44.3311 71.3999 44.3311 71.572C44.3311 71.7441 44.4159 71.8302 44.5855 71.8302H45.1649V71.3281H44.5855V71.3138ZM44.4866 72.117C44.1474 72.117 43.9354 71.9162 43.9354 71.5576C43.9354 71.1991 44.1333 70.9982 44.4866 70.9982H45.1649V70.9409C45.1649 70.7114 45.0801 70.6253 44.8681 70.6253H44.0626V70.3241H44.8822C45.3627 70.3241 45.5606 70.5249 45.5606 71.0126V72.1027H44.5007L44.4866 72.117Z" fill="#F2F2F2"/>
<path id="Vector_42" d="M46.6626 72.117C46.2952 72.117 46.1539 71.9735 46.1539 71.6006V70.6396H45.8713V70.3384H46.1539V69.8794H46.5355V70.3384H47.1431V70.6396H46.5355V71.5863C46.5355 71.7584 46.592 71.8158 46.7616 71.8158H47.1431V72.117H46.6626Z" fill="#F2F2F2"/>
<path id="Vector_43" d="M47.4822 72.117H47.8638V70.3384H47.4822V72.117ZM47.4822 70.1233H47.8638V69.693H47.4822V70.1233Z" fill="#F2F2F2"/>
<path id="Vector_44" d="M49.701 71.2277C49.701 70.8261 49.5314 70.611 49.1781 70.611C48.8248 70.611 48.6553 70.8118 48.6553 71.2277C48.6553 71.6437 48.8248 71.8445 49.1781 71.8445C49.5314 71.8445 49.701 71.6437 49.701 71.2277ZM49.1781 72.1457C48.5987 72.1457 48.2737 71.8445 48.2737 71.2277C48.2737 70.611 48.6129 70.3098 49.1781 70.3098C49.7434 70.3098 50.0825 70.611 50.0825 71.2277C50.0825 71.8445 49.7434 72.1457 49.1781 72.1457Z" fill="#F2F2F2"/>
<path id="Vector_45" d="M51.7075 71.0556C51.7075 70.7687 51.5945 70.6397 51.2977 70.6397H50.8738V72.1027H50.4922V70.3241H51.3684C51.863 70.3241 52.0891 70.5536 52.0891 71.0556V72.1027H51.7075V71.0413V71.0556Z" fill="#F2F2F2"/>
<path id="Vector_46" d="M54.4207 72.1171C53.6576 72.1171 53.2902 71.7298 53.2902 70.9123C53.2902 70.0947 53.6576 69.7074 54.4207 69.7074H55.0991V70.0516H54.5055C53.912 70.0516 53.7 70.3098 53.7 70.9266C53.7 71.5434 53.912 71.7872 54.5055 71.7872H55.1132V72.1314H54.4207V72.1171Z" fill="#F2F2F2"/>
<path id="Vector_47" d="M56.2439 72.1171C55.6645 72.1171 55.3677 71.8159 55.3677 71.2278C55.3677 70.6397 55.6645 70.3385 56.2439 70.3385H56.795V70.6397H56.2722C55.933 70.6397 55.7776 70.7688 55.7493 71.07H56.7668V71.3569H55.7493C55.7493 71.6438 55.8906 71.8159 56.2722 71.8159H56.8092V72.1171H56.2439Z" fill="#F2F2F2"/>
<path id="Vector_48" d="M58.4906 71.0556C58.4906 70.7687 58.3775 70.6397 58.0807 70.6397H57.6568V72.1027H57.2752V70.3241H58.1514C58.646 70.3241 58.8721 70.5536 58.8721 71.0556V72.1027H58.4906V71.0413V71.0556Z" fill="#F2F2F2"/>
<path id="Vector_49" d="M59.9888 72.117C59.6214 72.117 59.4801 71.9735 59.4801 71.6006V70.6396H59.1974V70.3384H59.4801V69.8794H59.8616V70.3384H60.4693V70.6396H59.8616V71.5863C59.8616 71.7584 59.9182 71.8158 60.0877 71.8158H60.4693V72.117H59.9888Z" fill="#F2F2F2"/>
<path id="Vector_50" d="M61.5573 72.1171C60.9779 72.1171 60.6811 71.8159 60.6811 71.2278C60.6811 70.6397 60.9779 70.3385 61.5573 70.3385H62.1084V70.6397H61.5855C61.2464 70.6397 61.0909 70.7688 61.0627 71.07H62.0801V71.3569H61.0627C61.0627 71.6438 61.204 71.8159 61.5855 71.8159H62.1225V72.1171H61.5573Z" fill="#F2F2F2"/>
<path id="Vector_51" d="M63.3097 70.3385C63.6913 70.3385 63.8609 70.5106 63.8609 70.8979V71.1274H63.4793V70.9409C63.4793 70.7401 63.3945 70.6541 63.1967 70.6541H62.9706V72.1171H62.589V70.3385H63.3097Z" fill="#F2F2F2"/>
</g>
<path id="Vector_52" d="M92.8019 55.2203V21.384L84.4643 12.9213V63.683L92.8019 72.1457V55.2203Z" fill="#8B7D6E"/>
<path id="Vector_53" d="M84.4643 63.6831V29.8468L92.8019 21.3841V55.2204L84.4643 63.6831Z" fill="#004A6E"/>
<path id="Vector_54" d="M71.9721 50.9891L84.4785 63.6831V29.8325L71.9721 42.5265C69.6686 44.8645 69.6686 48.6511 71.9721 50.9891Z" fill="url(#paint0_linear_2_1166)"/>
<path id="Vector_55" d="M105.294 34.0781L92.8017 21.3841V55.2204L105.294 42.5264C107.597 40.1884 107.597 36.4017 105.294 34.0638V34.0781Z" fill="url(#paint1_linear_2_1166)"/>
<path id="Vector_56" d="M13.3685 20.0071H8.01267V22.9905H12.6337C15.2198 22.9905 16.3079 24.1954 16.3079 26.5764V31.5106H6.14731V34.5084H19.4592V26.3899C19.4592 22.3164 17.608 20.0071 13.3685 20.0071Z" fill="white"/>
<path id="Vector_57" d="M12.0967 17.0667C13.0576 17.0667 13.8348 16.2778 13.8348 15.3025C13.8348 14.3271 13.0576 13.5382 12.0967 13.5382C11.1499 13.5669 10.3868 14.3558 10.3726 15.3168C10.3868 16.2778 11.1499 17.038 12.0967 17.0667Z" fill="white"/>
<path id="Vector_58" d="M39.8084 17.0667C40.7693 17.0667 41.5466 16.2778 41.5466 15.3025C41.5466 14.3271 40.7693 13.5382 39.8084 13.5382C38.8475 13.5669 38.0844 14.3558 38.0844 15.3168C38.0985 16.2778 38.8616 17.0524 39.8084 17.0667Z" fill="white"/>
<path id="Vector_59" d="M54.124 13.5382C53.1631 13.5669 52.4 14.3558 52.4 15.3168C52.4141 16.2778 53.1772 17.0524 54.124 17.0667C55.085 17.0667 55.8622 16.2778 55.8622 15.3025C55.8622 14.3271 55.085 13.5382 54.124 13.5382Z" fill="white"/>
<path id="Vector_60" d="M52.5694 31.5392H45.9558V20.007H39.102C34.7919 20.007 32.9124 22.4311 32.9124 26.5763V31.5105H28.5457C27.0195 31.5105 26.3129 30.8651 26.3129 29.1869V12.9213H23.1616V28.8426C23.1616 32.7871 24.4758 34.5083 28.7153 34.5083H55.6924V20.0214H52.5835V31.5535M42.7903 31.5535H36.092V26.8919C36.092 24.3101 37.1801 23.0048 39.7944 23.0048H42.7903V31.5535Z" fill="white"/>
<path id="Vector_61" d="M63.1678 12.9213H60.0165V34.5083H63.1678V12.9213Z" fill="white"/>
<path id="Vector_62" d="M63.182 36.4878L60.0165 39.4712V42.3256L63.182 39.3422V36.4878Z" fill="white"/>
<path id="Vector_63" d="M17.3818 44.2764H11.9129V55.3783H14.4283V46.3562H16.9862C18.6961 46.3562 19.3885 47.0591 19.3885 48.7946V55.3783H21.9039V48.8664C21.9039 45.6964 20.5049 44.2764 17.3818 44.2764Z" fill="white"/>
<path id="Vector_64" d="M25.4085 43.5162V44.2764H23.6845V46.3275H25.4085V55.3782H27.9239V46.3275H31.259V44.2764H27.9239V43.5879C27.9239 42.6125 28.2631 42.2683 29.224 42.2683H31.3438V40.2458H28.6447C26.3553 40.2458 25.4227 41.1925 25.4227 43.5162" fill="white"/>
<path id="Vector_65" d="M37.6746 44.2764H32.559V46.3276H37.6322C38.9465 46.3276 39.3987 46.7865 39.3987 48.1348V48.4074H35.3429C33.1808 48.4074 31.8948 49.7126 31.8948 51.9072C31.8948 54.1017 33.1808 55.407 35.3429 55.407H41.9141V48.6082C41.9141 45.553 40.6847 44.3051 37.6746 44.3051M39.4128 50.4441V53.3989H35.8941C34.9331 53.3989 34.4385 52.8969 34.4385 51.9215C34.4385 50.9462 34.9331 50.4441 35.8941 50.4441H39.4128Z" fill="white"/>
<path id="Vector_66" d="M47.5386 41.4076H45.0091V44.2763H43.2991V46.3274H45.0091V52.1222C45.0091 54.4458 45.9417 55.3925 48.231 55.3925H51.2411V53.3557H48.8387C47.8778 53.3557 47.5386 53.0115 47.5386 52.0361V46.3274H51.2835V44.2763H47.5386V41.4076Z" fill="white"/>
<path id="Vector_67" d="M58.6597 44.2764H55.7062V40.2458H53.1908V55.3782H55.7062V46.3562H58.2499C59.9598 46.3562 60.6523 47.059 60.6523 48.7946V55.3782H63.1677V48.8663C63.1677 45.6964 61.7687 44.2764 58.6456 44.2764" fill="white"/>
<path id="Vector_68" d="M8.67686 44.2907H6.14731V55.3782H8.67686V44.2907Z" fill="white"/>
<path id="Vector_69" d="M8.69099 37.8218L6.14731 40.2458V42.7273L8.69099 40.3032V37.8218Z" fill="white"/>
</g>
<defs>
<linearGradient id="paint0_linear_2_1166" x1="76.026" y1="55.3621" x2="93.1343" y2="38.5065" gradientUnits="userSpaceOnUse">
<stop stop-color="#00796F"/>
<stop offset="1" stop-color="#C7D300"/>
</linearGradient>
<linearGradient id="paint1_linear_2_1166" x1="75.9557" y1="55.4127" x2="101.613" y2="30.1345" gradientUnits="userSpaceOnUse">
<stop stop-color="#00796F"/>
<stop offset="1" stop-color="#C7D300"/>
</linearGradient>
</defs>
</svg>
