<svg width="21" height="20" viewBox="0 0 21 20" fill="none" xmlns="http://www.w3.org/2000/svg">
<g id="li:phone">
<path id="Vector" d="M16.7801 19.1083C16.7051 19.1083 16.6301 19.1083 16.5467 19.1C13.8551 18.8083 11.2384 17.875 8.98006 16.4083C6.88006 15.075 5.06339 13.2583 3.73006 11.1583C2.26339 8.89165 1.33006 6.26665 1.04673 3.57498C1.01339 3.21665 1.05506 2.87498 1.16339 2.54165C1.27173 2.20831 1.45506 1.90831 1.68839 1.64998C1.92173 1.39165 2.20506 1.19165 2.52173 1.04998C2.84673 0.908313 3.18839 0.833313 3.53839 0.833313H6.03839C6.62173 0.833313 7.22173 1.04165 7.68839 1.44165C8.14673 1.83331 8.44673 2.38331 8.53006 2.98331C8.63006 3.72498 8.81339 4.45831 9.07173 5.14998C9.23839 5.59998 9.28006 6.08331 9.17173 6.54998C9.07173 7.01665 8.83839 7.44998 8.50506 7.78331L7.90506 8.38331C8.88839 9.91665 10.1884 11.225 11.7301 12.2083L12.3301 11.6083C12.6717 11.2666 13.1051 11.0333 13.5717 10.9416C14.0384 10.8416 14.5217 10.875 14.9717 11.0416C15.6634 11.3 16.3967 11.4833 17.1301 11.5833C17.7467 11.6666 18.2967 11.975 18.6967 12.4416C19.0884 12.9083 19.3051 13.5 19.2884 14.1083V16.6C19.2884 16.95 19.2217 17.2833 19.0801 17.6083C18.9384 17.925 18.7301 18.2166 18.4801 18.45C18.2217 18.6833 17.9217 18.8666 17.5884 18.975C17.3217 19.0666 17.0551 19.1083 16.7801 19.1083ZM6.05506 2.49998H6.04673H3.53839C3.42173 2.49998 3.31339 2.52498 3.20506 2.57498C3.09673 2.61665 2.99673 2.68331 2.92173 2.76665C2.83839 2.84998 2.78006 2.94998 2.74673 3.06665C2.71339 3.17498 2.69673 3.29165 2.70506 3.40831C2.96339 5.83331 3.80506 8.19998 5.13006 10.2583C6.33839 12.1583 7.98006 13.8 9.88006 15.0083C11.9301 16.3416 14.2967 17.175 16.7134 17.4416C16.8134 17.45 16.9301 17.4333 17.0384 17.4C17.1467 17.3666 17.2467 17.3 17.3384 17.225C17.4301 17.15 17.4967 17.05 17.5384 16.9416C17.5884 16.8333 17.6051 16.7166 17.6051 16.6V14.1C17.6051 14.0916 17.6051 14.0833 17.6051 14.0833C17.6134 13.875 17.5384 13.6833 17.4051 13.525C17.2717 13.3666 17.0884 13.2666 16.8884 13.2416C16.0384 13.1333 15.1884 12.9166 14.3717 12.6166C14.2217 12.5583 14.0551 12.55 13.9051 12.5833C13.7467 12.6166 13.6051 12.6916 13.4884 12.8083L12.4384 13.8666C12.1717 14.1333 11.7634 14.1833 11.4384 14C9.22173 12.7416 7.38839 10.9 6.12173 8.69165C5.94673 8.34165 5.99673 7.93331 6.26339 7.66665L7.32173 6.60831C7.43006 6.49998 7.50506 6.35831 7.53839 6.19998C7.57173 6.04165 7.56339 5.88331 7.50506 5.73331C7.19673 4.91665 6.98839 4.06665 6.87173 3.20831C6.84673 3.01665 6.74673 2.83331 6.59673 2.69998C6.44673 2.57498 6.25506 2.49998 6.05506 2.49998Z" fill="#757575"/>
</g>
</svg>
