<svg width="9" height="15" viewBox="0 0 9 15" fill="none" xmlns="http://www.w3.org/2000/svg">
<g id="Icon material-location-on 1" clip-path="url(#clip0_2_1300)">
<path id="Icon material-location-on" d="M4.50033 0.500193C3.90919 0.499673 3.32375 0.626067 2.77752 0.872144C2.23128 1.11822 1.73497 1.47915 1.31697 1.93428C0.898966 2.38942 0.567483 2.92982 0.341483 3.52458C0.115484 4.11934 -0.000598101 4.75678 -0.000120603 5.40044C-0.000120603 9.07513 4.50033 14.5002 4.50033 14.5002C4.50033 14.5002 9.00079 9.07513 9.00079 5.40044C9.00126 4.75678 8.88518 4.11934 8.65918 3.52458C8.43318 2.92982 8.1017 2.38942 7.6837 1.93428C7.2657 1.47915 6.76938 1.11822 6.22315 0.872144C5.67691 0.626067 5.09148 0.499673 4.50033 0.500193ZM4.50033 7.14982C4.18239 7.14982 3.87158 7.04717 3.60722 6.85483C3.34286 6.6625 3.13681 6.38913 3.01514 6.06929C2.89347 5.74945 2.86163 5.39751 2.92366 5.05797C2.98569 4.71843 3.13879 4.40655 3.36361 4.16175C3.58844 3.91696 3.87488 3.75025 4.18671 3.68271C4.49855 3.61518 4.82178 3.64984 5.11552 3.78232C5.40927 3.9148 5.66033 4.13915 5.83697 4.427C6.01361 4.71485 6.1079 5.05326 6.1079 5.39945C6.1079 5.86368 5.93853 6.30889 5.63705 6.63715C5.33558 6.96541 4.92669 7.14982 4.50033 7.14982Z" fill="white"/>
</g>
<defs>
<clipPath id="clip0_2_1300">
<rect width="9" height="14" fill="white" transform="translate(0 0.5)"/>
</clipPath>
</defs>
</svg>
