<svg width="111" height="75" viewBox="0 0 111 75" fill="none" xmlns="http://www.w3.org/2000/svg">
<path d="M6.8773 64.0845H2.44653C2.21576 64.0845 1.98499 64.0614 1.75422 64.0383C1.59268 64.0153 1.43114 63.946 1.29268 63.8537C1.1773 63.7614 1.08499 63.646 1.03884 63.5307C0.992681 63.3691 0.969604 63.2076 0.969604 63.046V61.9153H1.5696V62.8383C1.5696 62.9537 1.59268 63.0922 1.61576 63.2076C1.66191 63.2999 1.70807 63.3691 1.80037 63.4153C1.91576 63.4614 2.03114 63.5076 2.16961 63.5076C2.33114 63.5307 2.51576 63.5307 2.74653 63.5307H6.2773V61.3153H6.8773V64.0845ZM3.11576 60.4845C3.11576 60.2768 3.30038 60.0922 3.50807 60.0922C3.60038 60.0922 3.71576 60.1383 3.78499 60.2076C3.92345 60.3691 3.90038 60.623 3.73884 60.7614C3.60038 60.8768 3.36961 60.8768 3.23114 60.7614C3.13884 60.6691 3.09268 60.5768 3.11576 60.4845ZM4.06191 60.4845C4.06191 60.3922 4.10807 60.2768 4.1773 60.2076C4.33884 60.046 4.56961 60.046 4.73115 60.2076C4.89268 60.3691 4.89268 60.5999 4.73115 60.7614C4.56961 60.923 4.33884 60.923 4.1773 60.7614C4.08499 60.6691 4.06191 60.5768 4.06191 60.4845Z" fill="white"/>
<path d="M8.49237 58.8693V64.0846H7.89236V58.8693H8.49237Z" fill="white"/>
<path d="M11.9082 63.2765C11.9082 63.4842 11.839 63.6919 11.6775 63.8534C11.4929 64.015 11.239 64.1073 10.9852 64.0842H9.23132V63.4842H10.9159C11.0775 63.4842 11.1929 63.4611 11.239 63.415C11.2852 63.3688 11.3082 63.2996 11.3082 63.2534C11.3082 63.2073 11.3082 63.1611 11.2852 63.0919C11.239 62.9996 11.1929 62.9073 11.1467 62.8381C11.0775 62.7227 10.9621 62.5611 10.8236 62.3534C10.6852 62.1458 10.4775 61.8458 10.2467 61.4765L10.8006 61.1304C10.9852 61.4765 11.1698 61.7534 11.3082 61.9842C11.4467 62.215 11.5621 62.3996 11.6544 62.5611C11.7236 62.6996 11.7929 62.8381 11.8621 62.9765C11.8852 63.0458 11.9082 63.1611 11.9082 63.2765Z" fill="white"/>
<path d="M13.3841 58.8691V64.0845H12.7841V58.8691H13.3841Z" fill="white"/>
<path d="M16.1541 64.0851C16.0156 64.0851 15.8772 64.062 15.7618 63.9697C15.6695 63.9005 15.5772 63.8081 15.531 63.7158C15.531 64.0158 15.5079 64.3158 15.4618 64.5928C15.4387 64.8005 15.3464 65.0081 15.231 65.1697C15.1156 65.3312 14.931 65.4466 14.7464 65.4928C14.4926 65.562 14.2156 65.6081 13.9618 65.5851V65.0081C14.1464 65.0081 14.331 64.9851 14.5156 64.9389C14.631 64.8928 14.7464 64.8005 14.7926 64.6851C14.8618 64.5466 14.9079 64.4081 14.9079 64.2466C14.9079 64.062 14.931 63.8543 14.931 63.6005V61.6389H15.531V62.6774C15.531 62.8851 15.5772 63.0928 15.6695 63.2543C15.7849 63.4158 15.9695 63.4851 16.1772 63.462C16.3156 63.4389 16.4541 63.5312 16.4772 63.6697C16.4772 63.6928 16.4772 63.7158 16.4772 63.7389C16.4772 63.8312 16.4541 63.9235 16.4079 63.9928C16.3156 64.062 16.2464 64.0851 16.1541 64.0851ZM14.8387 60.0466C14.8387 59.9543 14.8849 59.8389 14.9541 59.7697C15.0233 59.7005 15.1156 59.6543 15.231 59.6543C15.3233 59.6543 15.4387 59.7005 15.5079 59.7697C15.5772 59.8389 15.6233 59.9312 15.6233 60.0466C15.6233 60.2543 15.4618 60.4389 15.231 60.4389C15.0003 60.4389 14.8387 60.2543 14.8387 60.0466Z" fill="white"/>
<path d="M16.1534 64.085C16.0149 64.1081 15.8765 64.0158 15.8534 63.8773C15.8534 63.8542 15.8534 63.8311 15.8534 63.8081C15.8534 63.7157 15.8765 63.6234 15.9226 63.5542C15.9919 63.5081 16.0611 63.485 16.1534 63.485H17.238C17.3765 63.4619 17.5149 63.5542 17.538 63.6927C17.538 63.7157 17.538 63.7388 17.538 63.7619C17.538 63.8542 17.5149 63.9465 17.4688 64.0158C17.3995 64.0619 17.3303 64.085 17.238 64.085H16.1534Z" fill="white"/>
<path d="M17.2376 64.085C17.0992 64.1081 16.9607 64.0158 16.9376 63.8773C16.9376 63.8542 16.9376 63.8311 16.9376 63.8081C16.9376 63.7157 16.9607 63.6234 17.0069 63.5542C17.0761 63.5081 17.1453 63.485 17.2376 63.485H18.3222C18.4607 63.4619 18.5992 63.5542 18.6222 63.6927C18.6222 63.7157 18.6222 63.7388 18.6222 63.7619C18.6222 63.8542 18.5992 63.9465 18.553 64.0158C18.4838 64.0619 18.4145 64.085 18.3222 64.085H17.2376Z" fill="white"/>
<path d="M18.3233 64.085C18.1849 64.1081 18.0464 64.0158 18.0233 63.8773C18.0233 63.8542 18.0233 63.8311 18.0233 63.8081C18.0233 63.7157 18.0464 63.6234 18.0925 63.5542C18.1618 63.5081 18.231 63.485 18.3233 63.485H19.4079C19.5464 63.4619 19.6849 63.5542 19.7079 63.6927C19.7079 63.7157 19.7079 63.7388 19.7079 63.7619C19.7079 63.8542 19.6849 63.9465 19.6387 64.0158C19.5695 64.0619 19.5002 64.085 19.4079 64.085H18.3233Z" fill="white"/>
<path d="M19.4083 64.085C19.2698 64.1081 19.1314 64.0158 19.1083 63.8773C19.1083 63.8542 19.1083 63.8311 19.1083 63.8081C19.1083 63.7157 19.1314 63.6234 19.1775 63.5542C19.2467 63.5081 19.316 63.485 19.4083 63.485H20.4929C20.6314 63.4619 20.7698 63.5542 20.7929 63.6927C20.7929 63.7157 20.7929 63.7388 20.7929 63.7619C20.7929 63.8542 20.7698 63.9465 20.7237 64.0158C20.6544 64.0619 20.5852 64.085 20.4929 64.085H19.4083Z" fill="white"/>
<path d="M20.4688 64.085C20.3304 64.1081 20.1919 64.0158 20.1688 63.8773C20.1688 63.8542 20.1688 63.8311 20.1688 63.8081C20.1688 63.7157 20.1919 63.6234 20.2381 63.5542C20.3073 63.5081 20.3765 63.485 20.4688 63.485H21.5534C21.6919 63.4619 21.8304 63.5542 21.8534 63.6927C21.8534 63.7157 21.8534 63.7388 21.8534 63.7619C21.8534 63.8542 21.8304 63.9465 21.7842 64.0158C21.715 64.0619 21.6457 64.085 21.5534 64.085H20.4688Z" fill="white"/>
<path d="M21.5528 64.085C21.4143 64.1081 21.2759 64.0158 21.2528 63.8773C21.2528 63.8542 21.2528 63.8311 21.2528 63.8081C21.2528 63.7157 21.2759 63.6234 21.322 63.5542C21.3913 63.5081 21.4605 63.485 21.5528 63.485H22.6374C22.7759 63.4619 22.9143 63.5542 22.9374 63.6927C22.9374 63.7157 22.9374 63.7388 22.9374 63.7619C22.9374 63.8542 22.9143 63.9465 22.8682 64.0158C22.799 64.0619 22.7297 64.085 22.6374 64.085H21.5528Z" fill="white"/>
<path d="M22.6387 64.085C22.5003 64.1081 22.3618 64.0158 22.3387 63.8773C22.3387 63.8542 22.3387 63.8311 22.3387 63.8081C22.3387 63.7157 22.3618 63.6234 22.408 63.5542C22.4772 63.5081 22.5464 63.485 22.6387 63.485H23.7234C23.8618 63.4619 24.0003 63.5542 24.0234 63.6927C24.0234 63.7157 24.0234 63.7388 24.0234 63.7619C24.0234 63.8542 24.0003 63.9465 23.9541 64.0158C23.8849 64.0619 23.8157 64.085 23.7234 64.085H22.6387Z" fill="white"/>
<path d="M23.7236 64.085C23.5852 64.1081 23.4467 64.0158 23.4236 63.8773C23.4236 63.8542 23.4236 63.8311 23.4236 63.8081C23.4236 63.7157 23.4467 63.6234 23.4929 63.5542C23.5621 63.5081 23.6313 63.485 23.7236 63.485H24.8083C24.9467 63.4619 25.0852 63.5542 25.1083 63.6927C25.1083 63.7157 25.1083 63.7388 25.1083 63.7619C25.1083 63.8542 25.0852 63.9465 25.039 64.0158C24.9698 64.0619 24.9006 64.085 24.8083 64.085H23.7236Z" fill="white"/>
<path d="M24.8069 64.085C24.6685 64.1081 24.53 64.0158 24.5069 63.8773C24.5069 63.8542 24.5069 63.8311 24.5069 63.8081C24.5069 63.7157 24.53 63.6234 24.5762 63.5542C24.6454 63.5081 24.7146 63.485 24.8069 63.485H25.8915C26.03 63.4619 26.1685 63.5542 26.1915 63.6927C26.1915 63.7157 26.1915 63.7388 26.1915 63.7619C26.1915 63.8542 26.1685 63.9465 26.1223 64.0158C26.0531 64.0619 25.9839 64.085 25.8915 64.085H24.8069Z" fill="white"/>
<path d="M25.8927 64.085C25.7542 64.1081 25.6157 64.0158 25.5927 63.8773C25.5927 63.8542 25.5927 63.8311 25.5927 63.8081C25.5927 63.7157 25.6157 63.6234 25.6619 63.5542C25.7311 63.5081 25.8003 63.485 25.8927 63.485H26.9773C27.1157 63.4619 27.2542 63.5542 27.2773 63.6927C27.2773 63.7157 27.2773 63.7388 27.2773 63.7619C27.2773 63.8542 27.2542 63.9465 27.208 64.0158C27.1388 64.0619 27.0696 64.085 26.9773 64.085H25.8927Z" fill="white"/>
<path d="M26.9531 64.085C26.8147 64.1081 26.6762 64.0158 26.6531 63.8773C26.6531 63.8542 26.6531 63.8311 26.6531 63.8081C26.6531 63.7157 26.6762 63.6234 26.7224 63.5542C26.7916 63.5081 26.8608 63.485 26.9531 63.485H28.0378C28.1762 63.4619 28.3147 63.5542 28.3378 63.6927C28.3378 63.7157 28.3378 63.7388 28.3378 63.7619C28.3378 63.8542 28.3147 63.9465 28.2685 64.0158C28.1993 64.0619 28.1301 64.085 28.0378 64.085H26.9531Z" fill="white"/>
<path d="M28.0372 64.085C27.8987 64.1081 27.7603 64.0158 27.7372 63.8773C27.7372 63.8542 27.7372 63.8311 27.7372 63.8081C27.7372 63.7157 27.7603 63.6234 27.8064 63.5542C27.8756 63.5081 27.9449 63.485 28.0372 63.485H29.1218C29.2603 63.4619 29.3987 63.5542 29.4218 63.6927C29.4218 63.7157 29.4218 63.7388 29.4218 63.7619C29.4218 63.8542 29.3987 63.9465 29.3526 64.0158C29.2833 64.0619 29.2141 64.085 29.1218 64.085H28.0372Z" fill="white"/>
<path d="M29.1221 64.085C28.9837 64.1081 28.8452 64.0158 28.8221 63.8773C28.8221 63.8542 28.8221 63.8311 28.8221 63.8081C28.8221 63.7157 28.8452 63.6234 28.8914 63.5542C28.9606 63.5081 29.0298 63.485 29.1221 63.485H30.2068C30.3452 63.4619 30.4837 63.5542 30.5068 63.6927C30.5068 63.7157 30.5068 63.7388 30.5068 63.7619C30.5068 63.8542 30.4837 63.9465 30.4375 64.0158C30.3683 64.0619 30.2991 64.085 30.2068 64.085H29.1221Z" fill="white"/>
<path d="M30.2071 64.085C30.0686 64.1081 29.9302 64.0158 29.9071 63.8773C29.9071 63.8542 29.9071 63.8311 29.9071 63.8081C29.9071 63.7157 29.9302 63.6234 29.9763 63.5542C30.0456 63.5081 30.1148 63.485 30.2071 63.485H31.2917C31.4302 63.4619 31.5686 63.5542 31.5917 63.6927C31.5917 63.7157 31.5917 63.7388 31.5917 63.7619C31.5917 63.8542 31.5686 63.9465 31.5225 64.0158C31.4533 64.0619 31.384 64.085 31.2917 64.085H30.2071Z" fill="white"/>
<path d="M31.292 64.085C31.1535 64.1081 31.0151 64.0158 30.992 63.8773C30.992 63.8542 30.992 63.8311 30.992 63.8081C30.992 63.7157 31.0151 63.6234 31.0612 63.5542C31.1305 63.5081 31.1997 63.485 31.292 63.485H32.3766C32.5151 63.4619 32.6535 63.5542 32.6766 63.6927C32.6766 63.7157 32.6766 63.7388 32.6766 63.7619C32.6766 63.8542 32.6535 63.9465 32.6074 64.0158C32.5382 64.0619 32.4689 64.085 32.3766 64.085H31.292Z" fill="white"/>
<path d="M32.3528 64.0849C32.2143 64.1079 32.0759 64.0156 32.0528 63.8772C32.0528 63.8541 32.0528 63.831 32.0528 63.8079C32.0528 63.7156 32.0759 63.6233 32.122 63.5541C32.1913 63.5079 32.2605 63.4849 32.3528 63.4849H33.4374C33.5759 63.4618 33.7143 63.5541 33.7374 63.6925C33.7374 63.7156 33.7374 63.7387 33.7374 63.7618C33.7374 63.8541 33.7143 63.9464 33.6682 64.0156C33.599 64.0618 33.5297 64.0849 33.4374 64.0849H32.3528Z" fill="white"/>
<path d="M37.916 64.0847C37.7544 64.0847 37.5929 64.0616 37.4314 63.9693C37.2929 63.877 37.1775 63.7616 37.1083 63.6V63.577C37.016 63.7616 36.8775 63.9 36.6929 64.0154C36.4852 64.1308 36.2544 64.177 36.0237 64.177C35.7929 64.177 35.5621 64.1308 35.3314 64.0616C35.0775 63.9693 34.8237 63.8308 34.616 63.6693C34.5698 63.7616 34.5006 63.8308 34.4314 63.9C34.3621 63.9462 34.2929 63.9923 34.2237 64.0154C34.1544 64.0385 34.0621 64.0616 33.9929 64.0616C33.9006 64.0616 33.8314 64.0847 33.739 64.0616H33.416C33.2775 64.0847 33.139 63.9923 33.116 63.8539C33.116 63.8308 33.116 63.8077 33.116 63.7847C33.116 63.6923 33.139 63.6 33.1852 63.5308C33.2544 63.4847 33.3237 63.4616 33.416 63.4616H33.716C33.7852 63.4616 33.8314 63.4616 33.9006 63.4385C33.9698 63.4154 34.039 63.3923 34.0852 63.3462C34.1544 63.277 34.2237 63.2308 34.2698 63.1385C34.339 63.0231 34.4083 62.9077 34.4314 62.7923C34.5237 62.5385 34.639 62.2847 34.7775 62.0308C34.8698 61.8693 35.0083 61.7077 35.1467 61.5923C35.2621 61.5 35.4006 61.4308 35.539 61.3847C35.6775 61.3616 35.7929 61.3385 35.9314 61.3385C36.116 61.3385 36.2775 61.3616 36.439 61.4539C36.6006 61.5231 36.739 61.6154 36.8544 61.7539C36.9698 61.8923 37.0621 62.0539 37.1314 62.2154C37.2006 62.4 37.2237 62.6077 37.2237 62.8154C37.2237 62.8385 37.2237 62.8847 37.2237 62.9077C37.2237 62.9308 37.2237 62.977 37.2237 63C37.2698 63.1385 37.3391 63.2539 37.4314 63.3462C37.5698 63.4385 37.7083 63.4846 37.8698 63.4616C38.0083 63.4385 38.1467 63.5308 38.1698 63.6693C38.1698 63.6923 38.1698 63.7154 38.1698 63.7385C38.1698 63.8308 38.1467 63.9231 38.1006 63.9923C38.1006 64.0616 38.0083 64.0847 37.916 64.0847ZM36.6698 62.7923C36.6698 62.677 36.6467 62.5847 36.6237 62.4693C36.6006 62.377 36.5544 62.2847 36.4852 62.1923C36.416 62.1231 36.3467 62.0539 36.2544 62.0077C36.1621 61.9616 36.0467 61.9385 35.9544 61.9385C35.7467 61.9385 35.539 62.0539 35.4006 62.2154C35.1698 62.4923 35.0083 62.8154 34.916 63.1616C35.0775 63.277 35.2621 63.3693 35.4467 63.4385C35.6314 63.5077 35.816 63.5308 36.0006 63.5539C36.1852 63.5539 36.3467 63.5077 36.4852 63.3923C36.6237 63.2308 36.6929 63 36.6698 62.7923Z" fill="white"/>
<path d="M37.9388 64.0844C37.8003 64.1075 37.6619 64.0152 37.6388 63.8767C37.6388 63.8536 37.6388 63.8306 37.6388 63.8075C37.6388 63.7152 37.6619 63.6229 37.708 63.5536C37.7773 63.5075 37.8465 63.4844 37.9388 63.4844H38.5157C38.5849 63.4844 38.6773 63.4844 38.7465 63.4613C38.8157 63.4613 38.8619 63.4382 38.908 63.3921C38.9542 63.3459 39.0003 63.2998 39.0234 63.2306C39.0465 63.1382 39.0696 63.0459 39.0696 62.9536V58.869H39.6696V62.6767C39.6696 62.8844 39.7157 63.0921 39.808 63.2536C39.9234 63.3921 40.108 63.4844 40.2926 63.4613C40.4311 63.4382 40.5696 63.5306 40.5926 63.669C40.5926 63.6921 40.5926 63.7152 40.5926 63.7382C40.5926 63.8306 40.5696 63.9229 40.5234 63.9921C40.4542 64.0383 40.385 64.0613 40.2926 64.0613C40.1311 64.0613 39.9696 64.0152 39.8311 63.9229C39.7157 63.8306 39.6465 63.7152 39.6003 63.5767C39.5311 63.7613 39.3696 63.8998 39.1849 63.969C38.9542 64.0382 38.7003 64.0613 38.4465 64.0613L37.9388 64.0844Z" fill="white"/>
<path d="M40.2921 64.0845C40.1536 64.1076 40.0151 64.0153 39.9921 63.8768C39.9921 63.8538 39.9921 63.8307 39.9921 63.8076C39.9921 63.7153 40.0151 63.623 40.0613 63.5538C40.1305 63.5076 40.1998 63.4845 40.2921 63.4845H41.4228V58.8691H42.0228V64.0845H40.2921Z" fill="white"/>
<path d="M45.9455 63.4845C45.8071 63.4845 45.6686 63.4614 45.5301 63.4383C45.3686 63.3922 45.2301 63.346 45.0917 63.2537C44.9532 63.1614 44.8148 63.0229 44.7455 62.8845C44.6301 62.6999 44.584 62.4691 44.6071 62.2383C44.6071 62.0075 44.6532 61.7768 44.7455 61.5922C44.8378 61.4306 44.9532 61.2691 45.1147 61.1537C45.2532 61.0383 45.4148 60.9691 45.5994 60.9229C45.7609 60.8768 45.9455 60.8537 46.1301 60.8537H47.284V62.9306C47.2609 63.0922 47.3071 63.2306 47.3763 63.3691C47.4455 63.4614 47.584 63.4845 47.7917 63.4845H47.9763C48.1148 63.4614 48.2532 63.5537 48.2763 63.7152C48.2763 63.7383 48.2763 63.7614 48.2763 63.7845C48.2763 63.8768 48.2532 63.9691 48.2071 64.0383C48.1378 64.0845 48.0686 64.1075 47.9763 64.1075H47.7224C47.6071 64.1075 47.4917 64.1075 47.3532 64.0845C47.2378 64.0614 47.1455 64.0152 47.0532 63.9691C46.9609 63.8999 46.8917 63.8306 46.8224 63.7383C46.7532 63.6229 46.7071 63.5075 46.7071 63.3691C46.5917 63.4152 46.4763 63.4383 46.3378 63.4614C46.1994 63.4614 46.0609 63.4845 45.9455 63.4845ZM45.184 62.1691C45.184 62.3537 45.2532 62.5383 45.3686 62.6537C45.5532 62.7922 45.7609 62.8614 45.9917 62.8383C46.1071 62.8383 46.2224 62.8152 46.3378 62.7922C46.4532 62.7691 46.5686 62.746 46.6609 62.6999V61.4075H46.0148C45.8071 61.4075 45.5994 61.4537 45.4148 61.5922C45.2532 61.7537 45.1609 61.9614 45.184 62.1691ZM45.3455 59.4922C45.3455 59.2845 45.5301 59.0999 45.7378 59.0999C45.9455 59.0999 46.1301 59.2845 46.1301 59.4922C46.1301 59.5845 46.084 59.6999 46.0148 59.7691C45.8532 59.9306 45.6224 59.9306 45.4609 59.7691C45.3917 59.6999 45.3455 59.5845 45.3455 59.4922ZM46.2917 59.4922C46.2917 59.2845 46.4532 59.0999 46.684 59.0999C46.8917 59.0999 47.0763 59.2614 47.0763 59.4922C47.0763 59.7229 46.9148 59.8845 46.684 59.8845C46.5917 59.8845 46.4763 59.8383 46.4071 59.7691C46.3378 59.6999 46.2917 59.5845 46.2917 59.4922Z" fill="white"/>
<path d="M47.9541 64.0843C47.8156 64.1074 47.6771 64.0151 47.6541 63.8766C47.6541 63.8535 47.6541 63.8305 47.6541 63.8074C47.6541 63.7151 47.6771 63.6228 47.7233 63.5535C47.7925 63.5074 47.8617 63.4843 47.9541 63.4843H48.4387C48.531 63.4843 48.6464 63.4843 48.7387 63.4612C48.8079 63.4612 48.8771 63.4381 48.9464 63.392C48.9925 63.3458 49.0387 63.2997 49.0617 63.2305C49.0848 63.1381 49.1079 63.0458 49.1079 62.9535V61.292H49.7079V62.6997C49.7079 62.8151 49.7079 62.9305 49.731 63.0228C49.7541 63.1151 49.7771 63.2074 49.8233 63.2766C49.8694 63.3458 49.9387 63.392 50.031 63.4381C50.1233 63.4843 50.2387 63.5074 50.3541 63.5074C50.4925 63.4843 50.631 63.5766 50.6541 63.7151C50.6541 63.7381 50.6541 63.7612 50.6541 63.7843C50.6541 63.8766 50.631 63.9689 50.5848 64.0381C50.5156 64.0843 50.4464 64.1074 50.3541 64.1074C50.1925 64.1074 50.031 64.0612 49.8925 63.9689C49.7771 63.8766 49.7079 63.7612 49.6617 63.6228C49.5925 63.8074 49.431 63.9458 49.2464 64.0151C49.0156 64.0843 48.7848 64.1074 48.5541 64.1074H47.9541V64.0843ZM48.531 65.192C48.531 65.0997 48.5771 64.9843 48.6464 64.9151C48.8079 64.7535 49.0387 64.7535 49.2002 64.9151C49.2694 64.9843 49.3156 65.0766 49.3156 65.192C49.3156 65.2843 49.2694 65.3997 49.2002 65.4689C49.0387 65.6305 48.8079 65.6305 48.6464 65.4689C48.5771 65.3997 48.531 65.2843 48.531 65.192ZM49.5002 65.192C49.5002 65.0997 49.5464 64.9843 49.6156 64.9151C49.6848 64.8458 49.7771 64.7997 49.8925 64.7997C49.9848 64.7997 50.1002 64.8458 50.1694 64.9151C50.2387 64.9843 50.2848 65.0766 50.2848 65.192C50.2848 65.3997 50.1233 65.5843 49.8925 65.5843C49.8002 65.5843 49.6848 65.5381 49.6156 65.4689C49.5233 65.3997 49.4771 65.2843 49.5002 65.192Z" fill="white"/>
<path d="M50.3536 64.085C50.2151 64.1081 50.0767 64.0158 50.0536 63.8773C50.0536 63.8542 50.0536 63.8311 50.0536 63.8081C50.0536 63.7157 50.0767 63.6234 50.1228 63.5542C50.1921 63.5081 50.2613 63.485 50.3536 63.485H51.4382C51.5767 63.4619 51.7151 63.5542 51.7382 63.6927C51.7382 63.7157 51.7382 63.7388 51.7382 63.7619C51.7382 63.8542 51.7151 63.9465 51.669 64.0158C51.5997 64.0619 51.5305 64.085 51.4382 64.085H50.3536Z" fill="white"/>
<path d="M51.4378 64.085C51.2994 64.1081 51.1609 64.0158 51.1378 63.8773C51.1378 63.8542 51.1378 63.8311 51.1378 63.8081C51.1378 63.7157 51.1609 63.6234 51.207 63.5542C51.2763 63.5081 51.3455 63.485 51.4378 63.485H52.5224C52.6609 63.4619 52.7994 63.5542 52.8224 63.6927C52.8224 63.7157 52.8224 63.7388 52.8224 63.7619C52.8224 63.8542 52.7994 63.9465 52.7532 64.0158C52.684 64.0619 52.6147 64.085 52.5224 64.085H51.4378Z" fill="white"/>
<path d="M52.5235 64.085C52.3851 64.1081 52.2466 64.0158 52.2235 63.8773C52.2235 63.8542 52.2235 63.8311 52.2235 63.8081C52.2235 63.7157 52.2466 63.6234 52.2927 63.5542C52.362 63.5081 52.4312 63.485 52.5235 63.485H53.6081C53.7466 63.4619 53.8851 63.5542 53.9081 63.6927C53.9081 63.7157 53.9081 63.7388 53.9081 63.7619C53.9081 63.8542 53.8851 63.9465 53.8389 64.0158C53.7697 64.0619 53.7004 64.085 53.6081 64.085H52.5235Z" fill="white"/>
<path d="M53.6075 64.085C53.469 64.1081 53.3306 64.0158 53.3075 63.8773C53.3075 63.8542 53.3075 63.8311 53.3075 63.8081C53.3075 63.7157 53.3306 63.6234 53.3767 63.5542C53.446 63.5081 53.5152 63.485 53.6075 63.485H54.6921C54.8306 63.4619 54.969 63.5542 54.9921 63.6927C54.9921 63.7157 54.9921 63.7388 54.9921 63.7619C54.9921 63.8542 54.969 63.9465 54.9229 64.0158C54.8537 64.0619 54.7844 64.085 54.6921 64.085H53.6075Z" fill="white"/>
<path d="M54.6692 64.0849C54.5307 64.1079 54.3923 64.0156 54.3692 63.8772C54.3692 63.8541 54.3692 63.831 54.3692 63.8079C54.3692 63.7156 54.3923 63.6233 54.4384 63.5541C54.5077 63.5079 54.5769 63.4849 54.6692 63.4849H55.7538C55.8923 63.4618 56.0307 63.5541 56.0538 63.6925C56.0538 63.7156 56.0538 63.7387 56.0538 63.7618C56.0538 63.8541 56.0307 63.9464 55.9846 64.0156C55.9154 64.0618 55.8461 64.0849 55.7538 64.0849H54.6692Z" fill="white"/>
<path d="M55.753 64.085C55.6145 64.1081 55.4761 64.0158 55.453 63.8773C55.453 63.8542 55.453 63.8311 55.453 63.8081C55.453 63.7157 55.4761 63.6234 55.5222 63.5542C55.5915 63.5081 55.6607 63.485 55.753 63.485H56.8376C56.9761 63.4619 57.1145 63.5542 57.1376 63.6927C57.1376 63.7157 57.1376 63.7388 57.1376 63.7619C57.1376 63.8542 57.1145 63.9465 57.0684 64.0158C56.9992 64.0619 56.9299 64.085 56.8376 64.085H55.753Z" fill="white"/>
<path d="M56.8389 64.085C56.7005 64.1081 56.562 64.0158 56.5389 63.8773C56.5389 63.8542 56.5389 63.8311 56.5389 63.8081C56.5389 63.7157 56.562 63.6234 56.6082 63.5542C56.6774 63.5081 56.7466 63.485 56.8389 63.485H57.9236C58.062 63.4619 58.2005 63.5542 58.2236 63.6927C58.2236 63.7157 58.2236 63.7388 58.2236 63.7619C58.2236 63.8542 58.2005 63.9465 58.1543 64.0158C58.0851 64.0619 58.0159 64.085 57.9236 64.085H56.8389Z" fill="white"/>
<path d="M57.9229 64.085C57.7844 64.1081 57.646 64.0158 57.6229 63.8773C57.6229 63.8542 57.6229 63.8311 57.6229 63.8081C57.6229 63.7157 57.646 63.6234 57.6921 63.5542C57.7614 63.5081 57.8306 63.485 57.9229 63.485H59.0075C59.146 63.4619 59.2844 63.5542 59.3075 63.6927C59.3075 63.7157 59.3075 63.7388 59.3075 63.7619C59.3075 63.8542 59.2844 63.9465 59.2383 64.0158C59.169 64.0619 59.0998 64.085 59.0075 64.085H57.9229Z" fill="white"/>
<path d="M59.0071 64.085C58.8687 64.1081 58.7302 64.0157 58.7071 63.8773C58.7071 63.8542 58.7071 63.8311 58.7071 63.8081C58.7071 63.7157 58.7302 63.6234 58.7764 63.5542C58.8456 63.5081 58.9148 63.485 59.0071 63.485H59.4917C59.584 63.485 59.6994 63.485 59.7917 63.4619C59.861 63.4619 59.9302 63.4388 59.9994 63.3927C60.0456 63.3465 60.0917 63.3004 60.1148 63.2311C60.1379 63.1388 60.161 63.0465 60.161 62.9542V61.2927H60.761V62.7004C60.761 62.8157 60.761 62.9311 60.784 63.0234C60.8071 63.1157 60.8302 63.2081 60.8764 63.2773C60.9225 63.3465 60.9917 63.3927 61.084 63.4388C61.1764 63.485 61.2917 63.5081 61.4071 63.5081C61.5456 63.485 61.684 63.5773 61.7071 63.7157C61.7071 63.7388 61.7071 63.7619 61.7071 63.785C61.7071 63.8773 61.684 63.9696 61.6379 64.0388C61.5687 64.085 61.4994 64.1081 61.4071 64.1081C61.2456 64.1081 61.084 64.0619 60.9456 63.9696C60.8302 63.8773 60.761 63.7619 60.7148 63.6234C60.6456 63.8081 60.484 63.9465 60.2994 64.0157C60.0687 64.085 59.8379 64.1081 59.6071 64.1081H59.0071V64.085ZM60.0917 60.0465C60.0917 59.9542 60.1379 59.8388 60.2071 59.7696C60.3687 59.6081 60.5994 59.6081 60.761 59.7696C60.8302 59.8388 60.8764 59.9311 60.8764 60.0465C60.8764 60.2542 60.6917 60.4388 60.484 60.4388C60.2764 60.4388 60.0917 60.2542 60.0917 60.0465Z" fill="white"/>
<path d="M61.3839 64.0845C61.2454 64.1076 61.1069 64.0153 61.0839 63.8768C61.0839 63.8538 61.0839 63.8307 61.0839 63.8076C61.0839 63.7153 61.1069 63.623 61.1531 63.5538C61.2223 63.5076 61.2916 63.4845 61.3839 63.4845H62.2146V58.8691H62.8146V62.4461C63.0454 62.0768 63.3223 61.7538 63.6916 61.4999C64.0377 61.2691 64.4531 61.1538 64.8454 61.1768C65.2608 61.1538 65.6762 61.3153 65.9531 61.6153C66.23 61.9614 66.3685 62.3999 66.3454 62.8384V64.0845H61.3839ZM65.7685 63.4845V62.9999C65.7685 62.8384 65.7454 62.6999 65.7223 62.5384C65.6993 62.3999 65.63 62.2615 65.5377 62.1461C65.4454 62.0307 65.33 61.9384 65.2146 61.8922C65.0531 61.823 64.8916 61.7999 64.73 61.7999C64.4992 61.7999 64.2685 61.8461 64.0839 61.9614C63.8762 62.0768 63.6916 62.2153 63.5531 62.3768C63.3916 62.5384 63.2531 62.723 63.1377 62.9307C63.0223 63.1153 62.93 63.323 62.8608 63.5076L65.7685 63.4845Z" fill="white"/>
<path d="M69.877 64.0846C69.877 64.3384 69.8078 64.5922 69.6924 64.823C69.6001 65.0076 69.4386 65.1692 69.254 65.2846C69.0463 65.3999 68.8386 65.4922 68.6078 65.5384C68.3309 65.5845 68.054 65.6076 67.777 65.6076H67.477V65.0076H67.7078C67.9155 65.0076 68.1232 65.0076 68.3309 64.9845C68.4924 64.9615 68.677 64.9153 68.8155 64.8461C68.954 64.7769 69.0694 64.6846 69.1386 64.5692C69.2309 64.4307 69.277 64.2692 69.254 64.0846H68.4232C68.2386 64.0846 68.054 64.0615 67.8694 64.0153C67.7078 63.9692 67.5694 63.8999 67.4309 63.8076C67.2924 63.6922 67.2001 63.5769 67.1309 63.4153C67.0617 63.2307 67.0155 63.023 67.0155 62.8153C67.0155 62.6076 67.0386 62.423 67.1078 62.2384C67.177 62.0538 67.2694 61.8922 67.3847 61.7307C67.5232 61.5922 67.6617 61.4538 67.8463 61.3845C68.0309 61.2922 68.2386 61.2461 68.4463 61.2461C68.677 61.2461 68.8847 61.2922 69.0924 61.3845C69.277 61.4769 69.4155 61.6153 69.5309 61.7769C69.6463 61.9615 69.7155 62.1692 69.7617 62.3769C69.8078 62.6307 69.8309 62.9076 69.8309 63.1615V63.5076H70.3386C70.4771 63.4846 70.6155 63.5769 70.6386 63.7153C70.6386 63.7384 70.6386 63.7615 70.6386 63.7846C70.6386 63.8769 70.6155 63.9692 70.5694 64.0384C70.5001 64.0845 70.4309 64.1076 70.3386 64.1076L69.877 64.0846ZM67.6617 62.7461C67.6386 62.9538 67.7309 63.1615 67.8694 63.2999C68.054 63.4384 68.2847 63.4846 68.4924 63.4846H69.277V62.9999C69.3001 62.6999 69.2309 62.3999 69.0924 62.1461C68.954 61.9153 68.7232 61.7999 68.4694 61.823C68.2155 61.823 67.9847 61.9384 67.8463 62.123C67.777 62.2153 67.7309 62.3076 67.7078 62.423C67.6847 62.5384 67.6617 62.6307 67.6617 62.7461Z" fill="white"/>
<path d="M70.4075 64.0844C70.269 64.1075 70.1306 64.0152 70.1075 63.8767C70.1075 63.8536 70.1075 63.8306 70.1075 63.8075C70.1075 63.7152 70.1306 63.6229 70.1767 63.5536C70.2459 63.5075 70.3152 63.4844 70.4075 63.4844H71.5613V58.869H72.1613V64.0844H70.4075Z" fill="white"/>
<path d="M73.7765 58.8693V64.0846H73.1765V58.8693H73.7765Z" fill="white"/>
<path d="M77.6771 63.4847C77.5387 63.4847 77.4002 63.4616 77.2617 63.4386C77.1002 63.3924 76.9617 63.3462 76.8233 63.2539C76.6848 63.1616 76.5463 63.0232 76.4771 62.8847C76.3617 62.7001 76.3156 62.4693 76.3387 62.2386C76.3387 62.0078 76.3848 61.777 76.4771 61.5924C76.5694 61.4309 76.6848 61.2693 76.8233 61.1539C76.9617 61.0386 77.1233 60.9693 77.3079 60.9232C77.4694 60.877 77.654 60.8539 77.8387 60.8539H78.9925V62.9309C78.9694 63.0924 79.0156 63.2309 79.0848 63.3693C79.154 63.4616 79.2925 63.4847 79.5002 63.4847H79.6848C79.8233 63.4616 79.9617 63.5539 79.9848 63.7155C79.9848 63.7386 79.9848 63.7616 79.9848 63.7847C79.9848 63.877 79.9617 63.9693 79.9156 64.0386C79.8464 64.0847 79.7771 64.1078 79.6848 64.1078H79.431C79.3156 64.1078 79.1771 64.1078 79.0617 64.0847C78.9463 64.0616 78.854 64.0155 78.7617 63.9693C78.6694 63.9001 78.6002 63.8309 78.531 63.7386C78.4617 63.6232 78.4156 63.5078 78.4156 63.3693C78.3002 63.4155 78.1848 63.4386 78.0463 63.4616C77.931 63.4616 77.7925 63.4847 77.6771 63.4847ZM76.9156 62.1693C76.9156 62.3539 76.9848 62.5386 77.1002 62.6539C77.2848 62.7924 77.4925 62.8616 77.7233 62.8386C77.8387 62.8386 77.954 62.8155 78.0694 62.7924C78.1848 62.7693 78.3002 62.7463 78.3925 62.7001V61.4078H77.7463C77.5387 61.4078 77.331 61.4539 77.1463 61.5924C76.9848 61.7539 76.8925 61.9616 76.9156 62.1693ZM77.0771 59.4924C77.0771 59.2847 77.2617 59.1001 77.4694 59.1001C77.6771 59.1001 77.8617 59.2847 77.8617 59.4924C77.8617 59.5847 77.8156 59.7001 77.7463 59.7693C77.5848 59.9309 77.354 59.9309 77.1925 59.7693C77.1233 59.7001 77.0771 59.5847 77.0771 59.4924ZM78.0233 59.4924C78.0233 59.2847 78.1848 59.1001 78.4156 59.1001C78.5079 59.1001 78.6233 59.1463 78.6925 59.2155C78.7617 59.2847 78.8079 59.377 78.8079 59.4924C78.8079 59.7001 78.6463 59.8847 78.4156 59.8847C78.3233 59.8847 78.2079 59.8386 78.1387 59.7693C78.0694 59.7001 78.0233 59.5847 78.0233 59.4924Z" fill="white"/>
<path d="M79.6837 64.085C79.5452 64.1081 79.4067 64.0158 79.3837 63.8773C79.3837 63.8542 79.3837 63.8311 79.3837 63.8081C79.3837 63.7157 79.4067 63.6234 79.4529 63.5542C79.5221 63.5081 79.5914 63.485 79.6837 63.485H80.7683C80.9067 63.4619 81.0452 63.5542 81.0683 63.6927C81.0683 63.7157 81.0683 63.7388 81.0683 63.7619C81.0683 63.8542 81.0452 63.9465 80.9991 64.0158C80.9298 64.0619 80.8606 64.085 80.7683 64.085H79.6837Z" fill="white"/>
<path d="M80.7696 64.085C80.6311 64.1081 80.4927 64.0158 80.4696 63.8773C80.4696 63.8542 80.4696 63.8311 80.4696 63.8081C80.4696 63.7157 80.4927 63.6234 80.5388 63.5542C80.6081 63.5081 80.6773 63.485 80.7696 63.485H81.8542C81.9927 63.4619 82.1311 63.5542 82.1542 63.6927C82.1542 63.7157 82.1542 63.7388 82.1542 63.7619C82.1542 63.8542 82.1311 63.9465 82.085 64.0158C82.0158 64.0619 81.9465 64.085 81.8542 64.085H80.7696Z" fill="white"/>
<path d="M81.8535 64.0849C81.715 64.1079 81.5766 64.0156 81.5535 63.8772C81.5535 63.8541 81.5535 63.831 81.5535 63.8079C81.5535 63.7156 81.5766 63.6233 81.6227 63.5541C81.692 63.5079 81.7612 63.4849 81.8535 63.4849H82.9381C83.0766 63.4618 83.215 63.5541 83.2381 63.6925C83.2381 63.7156 83.2381 63.7387 83.2381 63.7618C83.2381 63.8541 83.215 63.9464 83.1689 64.0156C83.0997 64.0618 83.0304 64.0849 82.9381 64.0849H81.8535Z" fill="white"/>
<path d="M82.9385 64.0849C82.8001 64.1079 82.6616 64.0156 82.6385 63.8772C82.6385 63.8541 82.6385 63.831 82.6385 63.8079C82.6385 63.7156 82.6616 63.6233 82.7077 63.5541C82.777 63.5079 82.8462 63.4849 82.9385 63.4849H84.0231C84.1616 63.4618 84.3001 63.5541 84.3231 63.6925C84.3231 63.7156 84.3231 63.7387 84.3231 63.7618C84.3231 63.8541 84.3001 63.9464 84.2539 64.0156C84.1847 64.0618 84.1154 64.0849 84.0231 64.0849H82.9385Z" fill="white"/>
<path d="M84.0226 64.0849C83.8841 64.1079 83.7457 64.0156 83.7226 63.8772C83.7226 63.8541 83.7226 63.831 83.7226 63.8079C83.7226 63.7156 83.7457 63.6233 83.7918 63.5541C83.8611 63.5079 83.9303 63.4849 84.0226 63.4849H85.1072C85.2457 63.4618 85.3841 63.5541 85.4072 63.6925C85.4072 63.7156 85.4072 63.7387 85.4072 63.7618C85.4072 63.8541 85.3841 63.9464 85.338 64.0156C85.2688 64.0618 85.1995 64.0849 85.1072 64.0849H84.0226Z" fill="white"/>
<path d="M85.1085 64.085C84.97 64.1081 84.8315 64.0158 84.8085 63.8773C84.8085 63.8542 84.8085 63.8311 84.8085 63.8081C84.8085 63.7157 84.8316 63.6234 84.8777 63.5542C84.9469 63.5081 85.0162 63.485 85.1085 63.485H86.1931C86.3316 63.4619 86.47 63.5542 86.4931 63.6927C86.4931 63.7157 86.4931 63.7388 86.4931 63.7619C86.4931 63.8542 86.47 63.9465 86.4239 64.0158C86.3546 64.0619 86.2854 64.085 86.1931 64.085H85.1085Z" fill="white"/>
<path d="M86.169 64.085C86.0306 64.1081 85.8921 64.0158 85.869 63.8773C85.869 63.8542 85.869 63.8311 85.869 63.8081C85.869 63.7157 85.8921 63.6234 85.9382 63.5542C86.0075 63.5081 86.0767 63.485 86.169 63.485H87.2306C87.369 63.4619 87.5075 63.5542 87.5306 63.6927C87.5306 63.7157 87.5306 63.7388 87.5306 63.7619C87.5306 63.8542 87.5075 63.9465 87.4613 64.0158C87.3921 64.0619 87.3229 64.085 87.2306 64.085H86.169Z" fill="white"/>
<path d="M87.2542 64.085C87.1157 64.1081 86.9773 64.0158 86.9542 63.8773C86.9542 63.8542 86.9542 63.8311 86.9542 63.8081C86.9542 63.7157 86.9773 63.6234 87.0234 63.5542C87.0927 63.5081 87.1619 63.485 87.2542 63.485H88.3388C88.4773 63.4619 88.6157 63.5542 88.6388 63.6927C88.6388 63.7157 88.6388 63.7388 88.6388 63.7619C88.6388 63.8542 88.6157 63.9465 88.5696 64.0158C88.5003 64.0619 88.4311 64.085 88.3388 64.085H87.2542Z" fill="white"/>
<path d="M88.337 64.085C88.1985 64.1081 88.0601 64.0158 88.037 63.8773C88.037 63.8542 88.037 63.8311 88.037 63.8081C88.037 63.7157 88.0601 63.6234 88.1062 63.5542C88.1755 63.5081 88.2447 63.485 88.337 63.485H89.4216C89.5601 63.4619 89.6985 63.5542 89.7216 63.6927C89.7216 63.7157 89.7216 63.7388 89.7216 63.7619C89.7216 63.8542 89.6985 63.9465 89.6524 64.0158C89.5831 64.0619 89.5139 64.085 89.4216 64.085H88.337Z" fill="white"/>
<path d="M89.4229 64.0849C89.2844 64.1079 89.1459 64.0156 89.1229 63.8772C89.1229 63.8541 89.1229 63.831 89.1229 63.8079C89.1229 63.7156 89.1459 63.6233 89.1921 63.5541C89.2613 63.5079 89.3306 63.4849 89.4229 63.4849H90.5075C90.6459 63.4618 90.7844 63.5541 90.8075 63.6925C90.8075 63.7156 90.8075 63.7387 90.8075 63.7618C90.8075 63.8541 90.7844 63.9464 90.7382 64.0156C90.669 64.0618 90.5998 64.0849 90.5075 64.0849H89.4229Z" fill="white"/>
<path d="M90.5079 64.0849C90.3694 64.1079 90.231 64.0156 90.2079 63.8772C90.2079 63.8541 90.2079 63.831 90.2079 63.8079C90.2079 63.7156 90.231 63.6233 90.2771 63.5541C90.3464 63.5079 90.4156 63.4849 90.5079 63.4849H91.5925C91.731 63.4618 91.8694 63.5541 91.8925 63.6925C91.8925 63.7156 91.8925 63.7387 91.8925 63.7618C91.8925 63.8541 91.8694 63.9464 91.8233 64.0156C91.754 64.0618 91.6848 64.0849 91.5925 64.0849H90.5079Z" fill="white"/>
<path d="M91.592 64.0849C91.4535 64.1079 91.3151 64.0156 91.292 63.8772C91.292 63.8541 91.292 63.831 91.292 63.8079C91.292 63.7156 91.3151 63.6233 91.3612 63.5541C91.4305 63.5079 91.4997 63.4849 91.592 63.4849H92.6766C92.8151 63.4618 92.9535 63.5541 92.9766 63.6925C92.9766 63.7156 92.9766 63.7387 92.9766 63.7618C92.9766 63.8541 92.9535 63.9464 92.9074 64.0156C92.8381 64.0618 92.7689 64.0849 92.6766 64.0849H91.592Z" fill="white"/>
<path d="M92.6534 64.085C92.5149 64.1081 92.3765 64.0158 92.3534 63.8773C92.3534 63.8542 92.3534 63.8311 92.3534 63.8081C92.3534 63.7157 92.3765 63.6234 92.4226 63.5542C92.4919 63.5081 92.5611 63.485 92.6534 63.485H93.738C93.8765 63.4619 94.0149 63.5542 94.038 63.6927C94.038 63.7157 94.038 63.7388 94.038 63.7619C94.038 63.8542 94.0149 63.9465 93.9688 64.0158C93.8995 64.0619 93.8303 64.085 93.738 64.085H92.6534Z" fill="white"/>
<path d="M96.2551 64.0852C96.1397 64.0852 96.0012 64.0852 95.8858 64.039C95.7935 64.0159 95.7243 63.9698 95.6551 63.9236C95.5858 63.8775 95.5397 63.8313 95.5166 63.7621C95.4705 63.7159 95.4474 63.6467 95.4243 63.5775C95.3782 63.6698 95.332 63.7621 95.2397 63.8313C95.1474 63.9005 95.0551 63.9467 94.9628 63.9698C94.8243 64.0159 94.6858 64.039 94.5474 64.039C94.3858 64.0621 94.2012 64.0621 93.9935 64.0621H93.7628C93.6243 64.0852 93.4858 63.9929 93.4628 63.8544C93.4628 63.8313 93.4628 63.8082 93.4628 63.7852C93.4628 63.6929 93.4858 63.6005 93.532 63.5313C93.6012 63.4852 93.6705 63.4621 93.7628 63.4621H94.0166C94.1551 63.4621 94.2935 63.4621 94.432 63.439C94.5243 63.439 94.6166 63.4159 94.7089 63.3698C94.7782 63.3236 94.8243 63.2775 94.8474 63.2082C94.8705 63.1159 94.8935 63.0236 94.8935 62.9313V61.6159H95.4935V62.6544C95.4935 62.7698 95.4935 62.8852 95.5166 62.9775C95.5166 63.0698 95.5397 63.1621 95.5859 63.2313C95.632 63.3005 95.6782 63.3467 95.7474 63.3929C95.8397 63.439 95.932 63.4621 96.0243 63.4621C96.1166 63.1852 96.2551 62.9082 96.4166 62.6544C96.5782 62.3775 96.7859 62.1236 96.9935 61.9159C97.2243 61.7082 97.4782 61.5236 97.7551 61.3852C98.0551 61.2467 98.3551 61.1775 98.6782 61.1775C99.0935 61.1544 99.5089 61.3159 99.832 61.6159C100.132 61.9621 100.27 62.4005 100.247 62.8621V63.4852H100.801C100.94 63.4621 101.078 63.5544 101.101 63.6929C101.101 63.7159 101.101 63.739 101.101 63.7621C101.101 63.8544 101.078 63.9467 101.032 64.0159C100.963 64.0621 100.894 64.0852 100.801 64.0852H96.2551ZM99.6012 63.4852V63.0005C99.6012 62.839 99.5782 62.6775 99.5551 62.5159C99.532 62.3775 99.4628 62.239 99.3705 62.1236C99.2782 62.0082 99.1628 61.939 99.0474 61.8698C98.8859 61.8005 98.7243 61.7775 98.5628 61.7775C98.332 61.7775 98.1012 61.8236 97.9166 61.939C97.7089 62.0313 97.5243 62.1698 97.3628 62.3313C97.2012 62.4929 97.0397 62.6775 96.9243 62.8852C96.8089 63.0698 96.7166 63.2775 96.6243 63.4852H99.6012Z" fill="white"/>
<path d="M100.753 64.0851C100.615 64.1081 100.476 64.0158 100.453 63.8774C100.453 63.8543 100.453 63.8312 100.453 63.8081C100.453 63.7158 100.476 63.6235 100.522 63.5543C100.591 63.5081 100.661 63.4851 100.753 63.4851H101.238C101.33 63.4851 101.445 63.4851 101.538 63.462C101.607 63.462 101.676 63.4389 101.745 63.3928C101.791 63.3466 101.838 63.3004 101.861 63.2312C101.884 63.1389 101.907 63.0466 101.907 62.9543V61.2928H102.507V62.7005C102.507 62.8158 102.507 62.9312 102.53 63.0235C102.553 63.1158 102.576 63.2081 102.622 63.2774C102.668 63.3466 102.738 63.3928 102.83 63.4389C102.922 63.4851 103.038 63.5081 103.153 63.5081C103.291 63.4851 103.43 63.5774 103.453 63.7158C103.453 63.7389 103.453 63.762 103.453 63.7851C103.453 63.8774 103.43 63.9697 103.384 64.0389C103.315 64.0851 103.245 64.1081 103.153 64.1081C102.991 64.1081 102.83 64.062 102.691 63.9697C102.576 63.8774 102.507 63.762 102.461 63.6235C102.391 63.8081 102.23 63.9466 102.045 64.0158C101.815 64.0851 101.584 64.1081 101.353 64.1081H100.753V64.0851ZM101.838 60.0466C101.838 59.9543 101.884 59.8389 101.953 59.7697C102.022 59.7005 102.115 59.6543 102.23 59.6543C102.438 59.6543 102.622 59.8158 102.622 60.0466C102.622 60.1389 102.576 60.2543 102.507 60.3235C102.438 60.3928 102.345 60.4389 102.23 60.4389C102.022 60.4389 101.838 60.2543 101.838 60.0466Z" fill="white"/>
<path d="M107.631 64.0845C107.469 64.0845 107.308 64.0615 107.146 63.9691C107.008 63.8768 106.892 63.7615 106.823 63.5999V63.5768C106.731 63.7615 106.592 63.8999 106.408 64.0153C106.2 64.1307 105.969 64.1768 105.739 64.1768C105.508 64.1768 105.277 64.1307 105.046 64.0615C104.792 63.9691 104.539 63.8307 104.331 63.6691C104.285 63.7615 104.215 63.8307 104.146 63.8999C104.077 63.9461 104.008 63.9922 103.939 64.0153C103.869 64.0384 103.777 64.0615 103.708 64.0615C103.615 64.0615 103.546 64.0845 103.454 64.0615H103.131C102.992 64.0845 102.854 63.9922 102.831 63.8538C102.831 63.8307 102.831 63.8076 102.831 63.7845C102.831 63.6922 102.854 63.5999 102.9 63.5307C102.969 63.4845 103.039 63.4615 103.131 63.4615H103.431C103.5 63.4615 103.546 63.4615 103.615 63.4384C103.685 63.4153 103.754 63.3922 103.8 63.3461C103.869 63.2999 103.939 63.2307 103.985 63.1384C104.054 63.023 104.123 62.9076 104.169 62.7922C104.262 62.5384 104.377 62.2845 104.515 62.0307C104.608 61.8691 104.746 61.7076 104.885 61.5922C105 61.4999 105.139 61.4307 105.277 61.3845C105.415 61.3615 105.531 61.3384 105.669 61.3384C105.854 61.3384 106.015 61.3615 106.177 61.4538C106.339 61.523 106.477 61.6153 106.592 61.7538C106.708 61.8922 106.8 62.0538 106.869 62.2153C106.939 62.3999 106.962 62.6076 106.962 62.8153C106.962 62.8384 106.962 62.8845 106.962 62.9076C106.962 62.9307 106.962 62.9768 106.962 62.9999C107.008 63.1384 107.077 63.2538 107.169 63.3461C107.308 63.4384 107.446 63.4845 107.608 63.4615C107.746 63.4384 107.885 63.5307 107.908 63.6691C107.908 63.6922 107.908 63.7153 107.908 63.7384C107.908 63.8307 107.885 63.923 107.839 63.9922C107.792 64.0845 107.7 64.0845 107.631 64.0845ZM106.385 62.7922C106.385 62.6768 106.362 62.5845 106.339 62.4691C106.315 62.3768 106.269 62.2845 106.2 62.1922C106.131 62.123 106.062 62.0538 105.969 62.0076C105.877 61.9615 105.762 61.9384 105.669 61.9384C105.462 61.9384 105.254 62.0538 105.115 62.2153C104.885 62.4922 104.723 62.8153 104.631 63.1615C104.792 63.2768 104.977 63.3691 105.162 63.4384C105.346 63.5076 105.531 63.5307 105.715 63.5538C105.9 63.5538 106.062 63.5076 106.2 63.3691C106.315 63.2307 106.408 62.9999 106.385 62.7922Z" fill="white"/>
<path d="M107.631 64.0845C107.492 64.1076 107.354 64.0153 107.331 63.8768C107.331 63.8538 107.331 63.8307 107.331 63.8076C107.331 63.7153 107.354 63.623 107.4 63.5538C107.469 63.5076 107.539 63.4845 107.631 63.4845H108.762V58.8691H109.362V64.0845H107.631Z" fill="white"/>
<path d="M110.999 58.869V64.0844H110.399V58.869H110.999Z" fill="white"/>
<path d="M1.06042 68.3774H1.77581L4.47581 72.5313H4.49889V68.3774H5.14504V73.4774H4.40658L1.72966 69.3928H1.70658V73.5005H1.06042V68.3774Z" fill="white"/>
<path d="M10.1317 73.4765C9.99324 73.5457 9.85478 73.5919 9.69324 73.5688C9.55478 73.5688 9.41632 73.5227 9.32401 73.4304C9.20862 73.315 9.16247 73.1534 9.18555 72.9919C9.02401 73.1765 8.83939 73.3381 8.60862 73.4304C8.37785 73.5227 8.14708 73.5688 7.89324 73.5688C7.7317 73.5688 7.57016 73.5457 7.4317 73.5227C7.29324 73.4996 7.15478 73.4304 7.03939 73.3381C6.92401 73.2457 6.8317 73.1534 6.78554 73.015C6.71631 72.8765 6.69324 72.6919 6.69324 72.5304C6.69324 72.3457 6.71631 72.1842 6.80862 72.0227C6.87785 71.8842 6.97016 71.7919 7.08555 71.6996C7.20093 71.6073 7.33939 71.5611 7.47785 71.515C7.61632 71.4688 7.77785 71.4227 7.93939 71.3996C8.10093 71.3765 8.26247 71.3534 8.42401 71.3304C8.56247 71.3073 8.70093 71.2842 8.81632 71.2611C8.90862 71.2381 9.00093 71.1919 9.09324 71.1227C9.16247 71.0534 9.20862 70.9611 9.18555 70.8688C9.18555 70.7534 9.16247 70.6381 9.11632 70.5457C9.07016 70.4765 9.00093 70.4073 8.9317 70.3611C8.83939 70.315 8.77016 70.2919 8.67785 70.2688C8.58555 70.2457 8.49324 70.2457 8.37785 70.2457C8.14709 70.2457 7.93939 70.2919 7.7317 70.3842C7.54708 70.4996 7.4317 70.7304 7.45478 70.9381H6.85478C6.85478 70.7304 6.90093 70.5457 6.99324 70.3611C7.08555 70.1996 7.20093 70.0842 7.33939 69.9688C7.50093 69.8765 7.66247 69.8073 7.82401 69.7611C8.00862 69.715 8.21632 69.6919 8.42401 69.6919C8.58555 69.6919 8.74709 69.715 8.9317 69.7381C9.09324 69.7611 9.2317 69.8073 9.37016 69.8765C9.50862 69.9457 9.62401 70.0611 9.69324 70.1996C9.78555 70.3611 9.8317 70.5457 9.80863 70.7304V72.6227C9.80863 72.7381 9.80862 72.8304 9.8317 72.9457C9.85478 73.015 9.90093 73.038 9.99324 73.038C10.0625 73.038 10.1317 73.015 10.1779 72.9919L10.1317 73.4765ZM9.13939 71.5842C9.07016 71.6304 9.00093 71.6534 8.9317 71.6765C8.83939 71.6996 8.74709 71.7227 8.65478 71.7457C8.56247 71.7688 8.44708 71.7688 8.35478 71.7919C8.26247 71.815 8.14708 71.815 8.05478 71.8381C7.96247 71.8611 7.87016 71.8842 7.77785 71.9073C7.68555 71.9304 7.61632 71.9765 7.54708 72.0227C7.47785 72.0688 7.4317 72.1381 7.38555 72.2073C7.33939 72.2996 7.31631 72.3919 7.31631 72.4842C7.31631 72.5765 7.33939 72.6688 7.38555 72.7381C7.4317 72.8073 7.47785 72.8534 7.54708 72.8996C7.61632 72.9457 7.68555 72.9688 7.77785 72.9919C7.87016 73.015 7.96247 73.015 8.05478 73.015C8.23939 73.015 8.40093 72.9919 8.56247 72.9227C8.70093 72.8765 8.81632 72.8073 8.90862 72.715C9.00093 72.6457 9.07016 72.5534 9.11632 72.4381C9.16247 72.3457 9.18555 72.2534 9.18555 72.1611L9.13939 71.5842Z" fill="white"/>
<path d="M12.2539 69.7848H12.9923V70.3156H12.2539V72.6233C12.2539 72.6694 12.2539 72.7387 12.277 72.7848C12.277 72.831 12.3 72.854 12.3462 72.8771C12.3923 72.9002 12.4385 72.9233 12.4846 72.9233C12.5539 72.9233 12.6462 72.9464 12.7154 72.9233H12.9923V73.454H12.5308C12.3923 73.454 12.2539 73.454 12.1154 73.431C12.0231 73.4079 11.9308 73.3848 11.8385 73.3156C11.7693 73.2464 11.7231 73.1771 11.677 73.0848C11.6308 72.9464 11.6308 72.8079 11.6308 72.6694V70.3156H11.0077V69.7848H11.6308V68.6771H12.2539V69.7848Z" fill="white"/>
<path d="M15.0229 69.139H14.4229V68.4005H15.0229V69.139ZM14.4229 69.7851H15.0229V73.4774H14.4229V69.7851Z" fill="white"/>
<path d="M16.4772 71.6543C16.4772 71.4004 16.5234 71.1466 16.5926 70.8927C16.6618 70.6619 16.7772 70.4543 16.9388 70.2696C17.1003 70.085 17.2849 69.9466 17.4926 69.8543C18.0003 69.6466 18.5542 69.6466 19.0388 69.8543C19.2465 69.9466 19.4542 70.085 19.5926 70.2696C19.7542 70.4543 19.8695 70.6619 19.9388 70.8927C20.008 71.1466 20.0542 71.4004 20.0542 71.6543C20.0542 71.9081 20.008 72.1619 19.9388 72.4158C19.8695 72.6466 19.7542 72.8543 19.5926 73.0158C19.4311 73.2004 19.2465 73.3389 19.0388 73.4312C18.5311 73.6389 17.9772 73.6389 17.4926 73.4312C17.2849 73.3389 17.0772 73.2004 16.9388 73.0158C16.7772 72.8312 16.6618 72.6235 16.5926 72.4158C16.5234 72.1619 16.4772 71.9081 16.4772 71.6543ZM17.1465 71.6543C17.1465 71.8619 17.1695 72.0696 17.2388 72.2543C17.2849 72.4158 17.3772 72.5543 17.4926 72.6927C17.5849 72.8081 17.7234 72.9004 17.8619 72.9696C18.1388 73.085 18.4618 73.085 18.7619 72.9696C18.9003 72.9004 19.0388 72.8081 19.1311 72.6927C19.2465 72.5543 19.3157 72.4158 19.3849 72.2543C19.5003 71.8619 19.5003 71.4466 19.3849 71.0543C19.3388 70.8927 19.2465 70.7543 19.1311 70.6158C19.0388 70.5004 18.9003 70.4081 18.7619 70.3389C18.4849 70.2235 18.1619 70.2235 17.8619 70.3389C17.7234 70.4081 17.5849 70.5004 17.4926 70.6158C17.3772 70.7543 17.308 70.8927 17.2388 71.0543C17.1695 71.2389 17.1234 71.4466 17.1465 71.6543Z" fill="white"/>
<path d="M21.5067 69.7846H22.0836V70.3615H22.1067C22.222 70.1538 22.3836 69.9692 22.6143 69.8538C22.822 69.7384 23.0759 69.6923 23.3297 69.6923C23.5374 69.6923 23.7451 69.7153 23.9297 69.7846C24.0913 69.8538 24.2067 69.9461 24.322 70.0615C24.4143 70.1769 24.5067 70.3384 24.5297 70.4769C24.5759 70.6615 24.599 70.8461 24.599 71.0307V73.4538H23.999V70.9384C23.999 70.7307 23.9297 70.5461 23.7913 70.3846C23.6528 70.2461 23.4451 70.1769 23.2374 70.1769C23.0759 70.1769 22.9143 70.2 22.7528 70.2692C22.6374 70.3153 22.522 70.4076 22.4297 70.5C22.3374 70.6153 22.2682 70.7307 22.222 70.8692C22.1759 71.0076 22.1528 71.1692 22.1528 71.3307V73.4307H21.5297V69.7846H21.5067Z" fill="white"/>
<path d="M29.4928 73.4769C29.3543 73.5461 29.2158 73.5923 29.0543 73.5692C28.9158 73.5692 28.7774 73.523 28.6851 73.4307C28.5697 73.3153 28.5235 73.1538 28.5466 72.9923C28.3851 73.1769 28.2005 73.3384 27.9697 73.4307C27.7389 73.523 27.5081 73.5692 27.2543 73.5692C27.0928 73.5692 26.9312 73.5461 26.7697 73.523C26.6312 73.5 26.4928 73.4307 26.3774 73.3384C26.262 73.2461 26.1697 73.1538 26.1235 73.0153C26.0543 72.8769 26.0312 72.6923 26.0312 72.5307C26.0312 72.3461 26.0543 72.1846 26.1466 72.023C26.2158 71.8846 26.3081 71.7923 26.4235 71.7C26.5389 71.6076 26.6774 71.5615 26.8158 71.5153C26.9774 71.4692 27.1158 71.423 27.2774 71.4C27.4389 71.3769 27.6005 71.3538 27.762 71.3307C27.9005 71.3076 28.0389 71.2846 28.1543 71.2615C28.2466 71.2384 28.3389 71.1923 28.4312 71.123C28.5005 71.0538 28.5466 70.9615 28.5235 70.8692C28.5235 70.7538 28.5005 70.6384 28.4543 70.5461C28.4081 70.4769 28.3389 70.4077 28.2697 70.3615C28.1774 70.3153 28.1081 70.2923 27.9928 70.2692C27.9005 70.2461 27.8081 70.2461 27.6928 70.2461C27.462 70.2461 27.2543 70.2923 27.0466 70.3846C26.862 70.5 26.7466 70.7077 26.7697 70.9384H26.1697C26.1697 70.7307 26.2158 70.5461 26.3081 70.3615C26.4005 70.2 26.5158 70.0846 26.6543 69.9692C26.8158 69.8769 26.9774 69.8076 27.1389 69.7615C27.3235 69.7153 27.5312 69.6923 27.7389 69.6923C27.9005 69.6923 28.062 69.7153 28.2466 69.7384C28.4081 69.7615 28.5466 69.8076 28.6851 69.8769C28.8235 69.9461 28.9389 70.0615 29.0081 70.2C29.1005 70.3615 29.1466 70.5461 29.1235 70.7307V72.623C29.1235 72.7384 29.1235 72.8307 29.1466 72.9461C29.1697 73.0153 29.2158 73.0384 29.3081 73.0384C29.3774 73.0384 29.4466 73.0153 29.4928 72.9923V73.4769ZM28.5005 71.5846C28.4312 71.6307 28.362 71.6538 28.2928 71.6769C28.2005 71.7 28.1081 71.723 28.0158 71.7461C27.9235 71.7692 27.8312 71.7692 27.7158 71.7923C27.6005 71.8153 27.5081 71.8153 27.4158 71.8384C27.3235 71.8615 27.2312 71.8846 27.1389 71.9076C27.0466 71.9307 26.9774 71.9769 26.9081 72.023C26.8389 72.0692 26.7928 72.1384 26.7466 72.2077C26.7005 72.3 26.6774 72.3923 26.6774 72.4846C26.6774 72.5769 26.7005 72.6692 26.7466 72.7384C26.7928 72.8076 26.8389 72.8538 26.9081 72.9C26.9774 72.9461 27.0466 72.9692 27.1389 72.9923C27.2312 73.0153 27.3235 73.0153 27.4158 73.0153C27.6005 73.0153 27.762 72.9923 27.9235 72.923C28.062 72.8769 28.1774 72.8076 28.2697 72.7153C28.362 72.6461 28.4312 72.5538 28.4774 72.4384C28.5235 72.3461 28.5466 72.2538 28.5466 72.1615L28.5005 71.5846Z" fill="white"/>
<path d="M30.8073 68.3773H31.4073V73.4773H30.8073V68.3773Z" fill="white"/>
<path d="M37.2693 68.3774H38.0308L40.0154 73.4774H39.2539L38.7001 71.9313H36.5308L35.9539 73.4774H35.2616L37.2693 68.3774ZM36.7616 71.3774H38.4924L37.6385 69.0005L36.7616 71.3774Z" fill="white"/>
<path d="M44.1922 73.5H43.6383V72.9231H43.6152C43.4998 73.1308 43.3383 73.3154 43.1075 73.4308C42.8998 73.5462 42.646 73.5924 42.3922 73.5924C42.1845 73.5924 41.9768 73.5693 41.7922 73.5C41.6306 73.4308 41.5152 73.3385 41.3998 73.2231C41.3075 73.1077 41.2152 72.9462 41.1922 72.7847C41.146 72.6001 41.1229 72.4154 41.1229 72.2308V69.8077H41.7229V72.3231C41.6998 72.7154 41.9768 73.0385 42.346 73.0616C42.3922 73.0616 42.4152 73.0616 42.4614 73.0616C42.6229 73.0616 42.7845 73.0385 42.946 72.9693C43.0845 72.9231 43.1998 72.8308 43.2922 72.7154C43.3845 72.6 43.4537 72.4847 43.4998 72.3462C43.546 72.2077 43.5691 72.0462 43.5691 71.8847V69.7847H44.1691L44.1922 73.5Z" fill="white"/>
<path d="M48.3463 70.9844C48.2771 70.5229 47.8848 70.1998 47.4232 70.246C47.2386 70.246 47.0309 70.2921 46.8694 70.3614C46.7309 70.4306 46.6156 70.546 46.5232 70.6845C46.4309 70.8229 46.3617 70.9845 46.3386 71.146C46.2925 71.3306 46.2925 71.5152 46.2925 71.6768C46.2925 71.8383 46.3156 72.0229 46.3617 72.1844C46.4079 72.346 46.454 72.4844 46.5463 72.6229C46.6386 72.7383 46.754 72.8537 46.8694 72.9229C47.0309 72.9921 47.1925 73.0383 47.3771 73.0383C47.6309 73.0614 47.8848 72.9691 48.0694 72.8075C48.254 72.6229 48.3694 72.3921 48.3925 72.1383H49.0156C48.9694 72.5306 48.8079 72.8998 48.5309 73.1768C48.2309 73.4306 47.8156 73.5691 47.4232 73.546C47.1694 73.546 46.9156 73.4998 46.6848 73.4075C46.4771 73.3152 46.2925 73.1768 46.1309 73.0152C45.9925 72.8306 45.8771 72.646 45.8079 72.4152C45.7386 72.1614 45.6925 71.9075 45.6925 71.6537C45.6925 71.3998 45.7386 71.1229 45.8079 70.8691C45.8771 70.6383 45.9925 70.4306 46.1309 70.246C46.2694 70.0614 46.454 69.9229 46.6848 69.8306C46.9156 69.7152 47.1925 69.6691 47.4463 69.6691C47.654 69.6691 47.8386 69.6921 48.0463 69.7383C48.2309 69.7844 48.3925 69.8537 48.5309 69.9691C48.6694 70.0844 48.7848 70.1998 48.8771 70.3614C48.9694 70.546 49.0386 70.7306 49.0386 70.9383H48.3463V70.9844Z" fill="white"/>
<path d="M51.2302 69.7847H51.9687V70.3155H51.2302V72.6232C51.2302 72.6693 51.2302 72.7385 51.2533 72.7847C51.2533 72.8309 51.2995 72.8539 51.3225 72.877C51.3687 72.9001 51.4148 72.9232 51.461 72.9232C51.5302 72.9232 51.6225 72.9462 51.6918 72.9232H51.9687V73.4539H51.5071C51.3687 73.4539 51.2302 73.4539 51.0918 73.4308C50.9995 73.4078 50.9071 73.3847 50.8148 73.3155C50.7456 73.2462 50.6995 73.177 50.6533 73.0847C50.6071 72.9462 50.6071 72.8078 50.6071 72.6693V70.3155H49.9841V69.7847H50.6071V68.677H51.2071L51.2302 69.7847Z" fill="white"/>
<path d="M53.9991 69.139H53.3991V68.4005H53.9991V69.139ZM53.3991 69.7851H53.9991V73.4774H53.3991V69.7851Z" fill="white"/>
<path d="M55.4776 71.6543C55.4776 71.4004 55.5238 71.1466 55.593 70.8927C55.6622 70.6619 55.7776 70.4543 55.9392 70.2696C56.1007 70.085 56.2853 69.9466 56.493 69.8543C57.0007 69.6466 57.5546 69.6466 58.0392 69.8543C58.2469 69.9466 58.4546 70.085 58.593 70.2696C58.7546 70.4543 58.8699 70.6619 58.9392 70.8927C59.0084 71.1466 59.0546 71.4004 59.0546 71.6543C59.0546 71.9081 59.0084 72.1619 58.9392 72.4158C58.8699 72.6466 58.7546 72.8543 58.593 73.0158C58.4315 73.2004 58.2469 73.3389 58.0392 73.4312C57.5315 73.6389 56.9776 73.6389 56.493 73.4312C56.2853 73.3389 56.0776 73.2004 55.9392 73.0158C55.7776 72.8312 55.6622 72.6235 55.593 72.4158C55.5007 72.1619 55.4776 71.9081 55.4776 71.6543ZM56.1238 71.6543C56.1238 71.8619 56.1469 72.0696 56.2161 72.2543C56.2622 72.4158 56.3546 72.5543 56.4699 72.6927C56.5622 72.8081 56.7007 72.9004 56.8392 72.9696C57.1161 73.085 57.4392 73.085 57.7392 72.9696C57.8776 72.9004 58.0161 72.8081 58.1084 72.6927C58.2238 72.5543 58.293 72.4158 58.3622 72.2543C58.4776 71.8619 58.4776 71.4466 58.3622 71.0543C58.3161 70.8927 58.2238 70.7543 58.1084 70.6158C58.0161 70.5004 57.8776 70.4081 57.7392 70.3389C57.4622 70.2235 57.1392 70.2235 56.8392 70.3389C56.7007 70.4081 56.5622 70.5004 56.4699 70.6158C56.3546 70.7543 56.2853 70.8927 56.2161 71.0543C56.1469 71.2389 56.1007 71.4466 56.1238 71.6543Z" fill="white"/>
<path d="M60.4843 69.7842H61.0612V70.3611H61.0843C61.1996 70.1534 61.3612 69.9688 61.5689 69.8534C61.7766 69.7381 62.0304 69.6919 62.2843 69.6919C62.4919 69.6919 62.6996 69.715 62.8843 69.7842C63.0458 69.8534 63.1612 69.9457 63.2766 70.0611C63.3689 70.1765 63.4612 70.3381 63.4843 70.4765C63.5304 70.6611 63.5535 70.8457 63.5535 71.0304V73.4534H62.9535V70.9381C62.9766 70.5457 62.6996 70.2227 62.3073 70.1996C62.2612 70.1996 62.2381 70.1996 62.1919 70.1996C62.0304 70.1996 61.8689 70.2227 61.7073 70.2919C61.5689 70.338 61.4535 70.4304 61.3612 70.5227C61.2689 70.638 61.1996 70.7534 61.1535 70.8919C61.1073 71.0304 61.0843 71.1919 61.0843 71.3534V73.4534H60.4843V69.7842Z" fill="white"/>
<path d="M65.8388 69.1388H65.2388V68.4004H65.8388V69.1388ZM65.2157 69.785H65.8157V73.4773H65.2157V69.785Z" fill="white"/>
<path d="M67.4995 69.7842H68.0764V70.3611H68.0995C68.2149 70.1534 68.3764 69.9688 68.5841 69.8534C68.7918 69.7381 69.0457 69.6919 69.2995 69.6919C69.5072 69.6919 69.7149 69.715 69.8995 69.7842C70.0611 69.8534 70.1764 69.9457 70.2918 70.0611C70.3841 70.1765 70.4764 70.3381 70.4995 70.4765C70.5457 70.6611 70.5688 70.8457 70.5688 71.0304V73.4534H69.9457V70.9381C69.9457 70.7304 69.8764 70.5457 69.738 70.3842C69.5995 70.2457 69.3918 70.1765 69.1841 70.1765C69.0226 70.1765 68.8611 70.1996 68.6995 70.2688C68.5611 70.315 68.4457 70.4073 68.3534 70.4996C68.2611 70.615 68.1918 70.7304 68.1457 70.8688C68.0995 71.0073 68.0764 71.1688 68.0764 71.3304V73.4304H67.4764L67.4995 69.7842Z" fill="white"/>
<path d="M75.3928 73.1769C75.3928 73.7769 75.2543 74.2384 74.9774 74.5384C74.7005 74.8384 74.262 74.9999 73.6851 74.9999C73.5005 74.9999 73.339 74.9769 73.1543 74.9538C72.9928 74.9076 72.8082 74.8615 72.6697 74.7692C72.5313 74.6769 72.3928 74.5615 72.3005 74.423C72.2082 74.2615 72.139 74.0999 72.139 73.9153H72.739C72.739 74.0076 72.7851 74.123 72.8543 74.1923C72.9236 74.2615 72.9928 74.3307 73.0851 74.3769C73.1774 74.423 73.2928 74.4692 73.3851 74.4923C73.5005 74.5153 73.5928 74.5153 73.7082 74.5153C73.8928 74.5153 74.0543 74.4923 74.2159 74.3999C74.3543 74.3307 74.4697 74.2384 74.562 74.123C74.6543 73.9846 74.7236 73.8461 74.7697 73.6846C74.8159 73.4999 74.839 73.3153 74.839 73.1076V72.8538H74.7928C74.7467 72.9692 74.6774 73.0615 74.5851 73.1538C74.4928 73.2461 74.4005 73.3153 74.3082 73.3615C74.1928 73.4076 74.1005 73.4538 73.9851 73.4769C73.8697 73.4999 73.7543 73.523 73.639 73.523C73.3851 73.523 73.1543 73.4769 72.9236 73.3846C72.7159 73.2923 72.5543 73.1538 72.4159 72.9692C72.2774 72.7846 72.162 72.5999 72.0928 72.3692C72.0236 72.1384 71.9774 71.8846 71.9774 71.6538C71.9774 71.423 72.0005 71.1923 72.0697 70.9846C72.1159 70.7538 72.2313 70.5461 72.3466 70.3615C72.4851 70.1769 72.6697 70.0153 72.8774 69.9C73.1313 69.7615 73.4082 69.7153 73.6851 69.7153C73.9159 69.7153 74.1236 69.7615 74.3313 69.8769C74.539 69.9692 74.7005 70.1307 74.7928 70.3384V69.8076H75.3697L75.3928 73.1769ZM73.6851 72.9923C74.0313 73.0153 74.3543 72.8307 74.539 72.5307C74.6313 72.3923 74.7005 72.2307 74.7236 72.0692C74.7697 71.9076 74.7928 71.723 74.7928 71.5615C74.7928 71.3999 74.7697 71.2384 74.7467 71.0769C74.7236 70.9153 74.6543 70.7769 74.562 70.6384C74.4697 70.523 74.3774 70.4076 74.239 70.3384C74.1005 70.2692 73.9159 70.223 73.7543 70.223C73.5697 70.223 73.4082 70.2461 73.2466 70.3384C73.1082 70.4076 72.9928 70.4999 72.9005 70.6384C72.8082 70.7769 72.739 70.9153 72.7159 71.0769C72.6697 71.2384 72.6467 71.423 72.6467 71.5846C72.6467 71.7461 72.6697 71.9307 72.6928 72.0923C72.7159 72.2538 72.7851 72.4153 72.8774 72.5538C72.9467 72.6923 73.062 72.8076 73.2005 72.8769C73.339 72.9692 73.5005 73.0153 73.6851 72.9923Z" fill="white"/>
<path d="M79.823 68.3774H82.0615C82.4769 68.3543 82.9153 68.4927 83.2384 68.7697C83.7692 69.4158 83.7692 70.362 83.2384 71.0081C82.9153 71.285 82.5 71.4466 82.0615 71.4004H80.4923V73.5004H79.823V68.3774ZM80.5153 70.8235H81.8538C82.1538 70.8466 82.4538 70.7774 82.7076 70.5927C83.0538 70.2004 83.0538 69.6004 82.7076 69.1851C82.4538 69.0004 82.1538 68.9312 81.8538 68.9543H80.5153V70.8235Z" fill="white"/>
<path d="M85.1083 68.3774H85.7083V73.4774H85.1083V68.3774Z" fill="white"/>
<path d="M90.6694 73.4765C90.531 73.5457 90.3925 73.5919 90.231 73.5688C90.0925 73.5688 89.954 73.5227 89.8617 73.4304C89.7463 73.315 89.7002 73.1534 89.7233 72.9919C89.5617 73.1765 89.3771 73.3381 89.1464 73.4304C88.9156 73.5227 88.6848 73.5688 88.431 73.5688C88.2694 73.5688 88.1079 73.5457 87.9464 73.5227C87.8079 73.4996 87.6694 73.4304 87.554 73.3381C87.4387 73.2457 87.3464 73.1534 87.3002 73.015C87.231 72.8765 87.2079 72.6919 87.2079 72.5304C87.2079 72.3457 87.231 72.1842 87.3233 72.0227C87.3925 71.8842 87.4848 71.7919 87.6002 71.6996C87.7156 71.6073 87.854 71.5611 87.9925 71.515C88.131 71.4688 88.2925 71.4227 88.454 71.3996C88.6156 71.3765 88.7771 71.3534 88.9387 71.3304C89.0771 71.3073 89.2156 71.2842 89.331 71.2611C89.4233 71.2381 89.5156 71.1919 89.6079 71.1227C89.6771 71.0534 89.7233 70.9611 89.7002 70.8688C89.7002 70.7534 89.6771 70.6381 89.631 70.5457C89.5848 70.4765 89.5156 70.4073 89.4464 70.3611C89.354 70.315 89.2848 70.2919 89.1925 70.2688C89.1002 70.2457 89.0079 70.2457 88.8925 70.2457C88.6617 70.2457 88.454 70.2919 88.2463 70.3842C88.0617 70.4996 87.9464 70.7073 87.9694 70.9381H87.3694C87.3694 70.7304 87.4156 70.5457 87.5079 70.3611C87.6002 70.1996 87.7156 70.0842 87.854 69.9688C88.0156 69.8765 88.1771 69.8073 88.3387 69.7611C88.5233 69.715 88.731 69.6919 88.9156 69.6919C89.0771 69.6919 89.2387 69.715 89.4002 69.7381C89.5617 69.7611 89.7002 69.8073 89.8387 69.8765C89.9771 69.9457 90.0925 70.0611 90.1617 70.1996C90.254 70.3611 90.3002 70.5457 90.2771 70.7304V72.6227C90.2771 72.7381 90.2771 72.8304 90.3002 72.9457C90.3233 73.015 90.3694 73.038 90.4617 73.038C90.531 73.038 90.6002 73.015 90.6464 72.9919V73.4765H90.6694ZM89.6771 71.5842C89.6079 71.6304 89.5387 71.6534 89.4694 71.6765C89.3771 71.6996 89.2848 71.7227 89.1925 71.7457C89.1002 71.7688 88.9848 71.7688 88.8925 71.7919C88.8002 71.815 88.6848 71.815 88.5694 71.8381C88.4771 71.8611 88.3848 71.8842 88.2925 71.9073C88.2002 71.9304 88.131 71.9765 88.0617 72.0227C87.9925 72.0688 87.9463 72.1381 87.9002 72.2073C87.854 72.2996 87.831 72.3919 87.831 72.4842C87.831 72.5765 87.854 72.6688 87.9002 72.7381C87.9463 72.8073 87.9925 72.8534 88.0617 72.8996C88.131 72.9457 88.2002 72.9688 88.2925 72.9919C88.3848 73.015 88.4771 73.015 88.5694 73.015C88.754 73.015 88.9156 72.9919 89.0771 72.9227C89.2156 72.8765 89.331 72.8073 89.4233 72.715C89.5156 72.6457 89.5848 72.5534 89.631 72.4381C89.6771 72.3457 89.7002 72.2534 89.7002 72.1611L89.6771 71.5842Z" fill="white"/>
<path d="M92.7919 69.7849H93.5304V70.3157H92.7919V72.6234C92.7919 72.6696 92.7919 72.7388 92.815 72.7849C92.815 72.8311 92.8612 72.8542 92.8842 72.8772C92.9304 72.9003 92.9765 72.9234 93.0227 72.9234C93.0919 72.9234 93.1842 72.9465 93.2535 72.9234H93.5304V73.4542H93.0689C92.9304 73.4542 92.7919 73.4542 92.6535 73.4311C92.5612 73.408 92.4689 73.3849 92.3765 73.3157C92.3073 73.2465 92.2612 73.1772 92.215 73.0849C92.1689 72.9465 92.1688 72.808 92.1688 72.6696V70.3157H91.5458V69.7849H92.1688V68.6772H92.7689V69.7849H92.7919Z" fill="white"/>
<path d="M95.1688 70.3387H94.5457V69.8079H95.1688V69.2541C95.1457 69.0003 95.2381 68.7464 95.4227 68.5618C95.6304 68.4003 95.9073 68.3079 96.1842 68.331C96.2534 68.331 96.3227 68.331 96.3919 68.3541C96.4611 68.3541 96.5304 68.3772 96.5996 68.4003V68.931C96.5534 68.9079 96.4842 68.9079 96.4381 68.8849C96.3919 68.8849 96.3227 68.8849 96.2765 68.8849C96.1611 68.8849 96.0457 68.908 95.9304 68.9772C95.8381 69.0695 95.7919 69.1849 95.815 69.3003V69.8079H96.5304V70.3387H95.815V73.5003H95.215L95.1688 70.3387Z" fill="white"/>
<path d="M97.546 71.6543C97.546 71.4004 97.5922 71.1466 97.6614 70.8927C97.7306 70.6619 97.846 70.4543 98.0076 70.2696C98.1691 70.085 98.3537 69.9466 98.5614 69.8543C99.0691 69.6466 99.6229 69.6466 100.108 69.8543C100.315 69.9466 100.523 70.085 100.684 70.2696C100.846 70.4543 100.961 70.6619 101.031 70.8927C101.1 71.1466 101.146 71.4004 101.146 71.6543C101.146 71.9081 101.1 72.1619 101.031 72.4158C100.961 72.6466 100.846 72.8543 100.684 73.0158C100.523 73.2004 100.338 73.3389 100.108 73.4312C99.5999 73.6389 99.046 73.6389 98.5614 73.4312C98.3537 73.3389 98.146 73.2004 98.0076 73.0158C97.846 72.8312 97.7306 72.6235 97.6614 72.4158C97.5922 72.1619 97.546 71.9081 97.546 71.6543ZM98.1922 71.6543C98.1922 71.8619 98.2152 72.0696 98.2845 72.2543C98.3306 72.4158 98.4229 72.5543 98.5383 72.6927C98.6306 72.8081 98.7691 72.9004 98.9076 72.9696C99.1845 73.085 99.5076 73.085 99.8076 72.9696C99.946 72.9004 100.084 72.8081 100.177 72.6927C100.292 72.5773 100.361 72.4158 100.431 72.2543C100.546 71.8619 100.546 71.4466 100.431 71.0543C100.384 70.8927 100.292 70.7312 100.177 70.6158C100.084 70.5004 99.946 70.4081 99.8076 70.3389C99.5306 70.2235 99.2076 70.2235 98.9076 70.3389C98.7691 70.4081 98.6306 70.5004 98.5383 70.6158C98.4229 70.7543 98.3537 70.8927 98.2845 71.0543C98.2152 71.2389 98.1922 71.4466 98.1922 71.6543Z" fill="white"/>
<path d="M102.555 69.7851H103.131V70.5697H103.155C103.27 70.2928 103.455 70.0851 103.708 69.9005C103.962 69.739 104.239 69.6697 104.516 69.6928V70.339C104.308 70.339 104.101 70.362 103.893 70.4313C103.731 70.5005 103.593 70.5928 103.478 70.7313C103.362 70.8697 103.293 71.0313 103.247 71.1928C103.201 71.4005 103.178 71.6082 103.178 71.8159V73.4543H102.578V69.7851H102.555Z" fill="white"/>
<path d="M105.67 69.7846H106.247V70.3384H106.27C106.662 69.7384 107.447 69.5307 108.093 69.8538C108.277 69.9461 108.416 70.1307 108.485 70.3384C108.601 70.1538 108.785 69.9923 108.97 69.8769C109.177 69.7615 109.408 69.7153 109.639 69.7153C109.801 69.7153 109.985 69.7384 110.147 69.7846C110.285 69.8307 110.424 69.8769 110.539 69.9692C110.654 70.0615 110.724 70.1769 110.793 70.2923C110.862 70.4538 110.885 70.6153 110.885 70.7769V73.4999H110.285V71.0769C110.285 70.9615 110.285 70.8692 110.262 70.7538C110.239 70.6615 110.216 70.5692 110.147 70.4999C110.101 70.4307 110.008 70.3615 109.916 70.3153C109.801 70.2692 109.685 70.2461 109.547 70.2461C109.293 70.223 109.039 70.3153 108.854 70.4999C108.67 70.6846 108.577 70.9384 108.601 71.1923V73.4999H108.001V71.0769C108.001 70.9615 108.001 70.8461 107.977 70.7538C107.954 70.6615 107.931 70.5692 107.862 70.4999C107.816 70.4307 107.724 70.3615 107.654 70.3153C107.539 70.2692 107.424 70.2461 107.308 70.2461C107.147 70.2461 106.985 70.2692 106.847 70.3615C106.731 70.4307 106.639 70.523 106.547 70.6153C106.477 70.7076 106.408 70.823 106.362 70.9384C106.339 71.0307 106.316 71.123 106.316 71.2153V73.523H105.716L105.67 69.7846Z" fill="white"/>
<path d="M2.2152 47.1C2.2152 47.6077 2.35366 48.0923 2.63058 48.5077C3.09212 49.1769 3.89981 49.5231 5.05366 49.5231C5.53828 49.5231 6.02289 49.4539 6.48443 49.3154C7.3152 49.0385 7.73059 48.5077 7.73059 47.7692C7.73059 47.2154 7.54597 46.8231 7.19982 46.5692C6.69212 46.2692 6.1152 46.0615 5.53828 45.9692L4.15366 45.6462C3.25366 45.4385 2.60751 45.2077 2.23827 44.9769C1.59212 44.5615 1.22289 43.8231 1.26904 43.0615C1.24597 42.2077 1.59212 41.3769 2.2152 40.8C2.86135 40.2 3.76135 39.9231 4.9152 39.9231C5.88443 39.9 6.83059 40.1769 7.63828 40.7077C8.39982 41.2154 8.76905 42.0462 8.76905 43.2H7.47674C7.45366 42.7385 7.29213 42.3 7.03828 41.9308C6.62289 41.4 5.90751 41.1231 4.89212 41.1231C4.08443 41.1231 3.48443 41.2846 3.13828 41.6308C2.79212 41.9308 2.60751 42.3692 2.60751 42.8308C2.58443 43.2923 2.8152 43.7308 3.23058 43.9385C3.50751 44.0769 4.13058 44.2615 5.09982 44.4923L6.53059 44.8154C7.10751 44.9308 7.63828 45.1385 8.12289 45.4615C8.76905 45.9462 9.09213 46.6385 9.09213 47.5385C9.09213 48.6692 8.67674 49.4769 7.84597 49.9615C6.96905 50.4692 5.97674 50.7231 4.98443 50.7C3.7152 50.7 2.72289 50.3769 2.0075 49.7308C1.29212 49.0846 0.922889 48.2077 0.945966 47.1H2.2152Z" fill="#EEA820"/>
<path d="M23.5377 41.6303C24.2069 42.5303 24.5531 43.6842 24.5531 45.0918C24.5531 46.6149 24.1607 47.8842 23.3992 48.8995C22.4761 50.0995 21.1838 50.6995 19.4992 50.6995C17.93 50.6995 16.6838 50.1688 15.7838 49.1303C14.9761 48.138 14.5838 46.8688 14.5838 45.3226C14.5377 44.0534 14.9069 42.8303 15.6223 41.7688C16.4992 40.4995 17.8146 39.8765 19.5454 39.8765C21.3223 39.8995 22.6607 40.4765 23.5377 41.6303ZM22.3146 48.1611C22.8684 47.2611 23.1454 46.1995 23.1223 45.138C23.1223 43.938 22.7992 42.9688 22.1761 42.2303C21.5531 41.4918 20.6761 41.1226 19.5915 41.1226C18.5992 41.0995 17.653 41.4918 17.0069 42.2072C16.3377 42.9457 16.0146 44.0072 16.0146 45.4149C15.9915 46.4303 16.2915 47.4457 16.8684 48.2765C17.4454 49.0611 18.3684 49.4534 19.6607 49.4534C20.8838 49.4534 21.7607 49.038 22.3146 48.1611Z" fill="#EEA820"/>
<path d="M31.9849 40.1772V46.5003C31.9618 47.1465 32.1003 47.7696 32.4003 48.3465C32.8157 49.0849 33.508 49.4542 34.5003 49.4542C35.6772 49.4542 36.4618 49.0619 36.9003 48.2542C37.1541 47.7003 37.2695 47.1003 37.2464 46.5003V40.1772H38.6541V45.9234C38.6541 47.1926 38.4926 48.1619 38.1464 48.8311C37.5234 50.0542 36.3464 50.6772 34.6157 50.6772C32.8849 50.6772 31.708 50.0542 31.108 48.8311C30.7618 48.1619 30.6003 47.1926 30.6003 45.9234V40.1772H31.9849Z" fill="#EEA820"/>
<path d="M45.0232 40.1772H47.0078L49.9386 48.8311L52.8693 40.1772H54.8309V50.4003H53.5155V44.3542C53.5155 44.1465 53.5155 43.8003 53.5386 43.3157C53.5616 42.8311 53.5616 42.3234 53.5616 41.7696L50.6539 50.4003H49.2693L46.3385 41.7696V42.0926C46.3385 42.3465 46.3385 42.7157 46.3616 43.2465C46.3847 43.7772 46.3847 44.1465 46.3847 44.3772V50.4234H45.0232V40.1772Z" fill="#EEA820"/>
<path d="M68.6536 40.1772V41.4003H65.2152V50.4003H63.8075V41.4003H60.369V40.1772H68.6536Z" fill="#EEA820"/>
<path d="M74.33 40.1772H81.7838V41.4234H75.6684V44.5388H81.3223V45.7157H75.6684V49.1772H81.8761V50.4003H74.33V40.1772Z" fill="#EEA820"/>
<path d="M95.3081 40.9155C95.9773 41.5155 96.4158 42.3463 96.5081 43.2463H95.1465C95.0311 42.6463 94.685 42.0925 94.2234 41.6771C93.7619 41.2848 93.1157 41.1002 92.3081 41.1002C91.385 41.0771 90.485 41.4694 89.8619 42.1617C89.2388 42.8771 88.9388 43.9617 88.9388 45.4155C88.9388 46.6155 89.2157 47.5848 89.7696 48.3232C90.3234 49.0617 91.1542 49.4309 92.285 49.4309C93.2081 49.4771 94.1081 49.0386 94.6157 48.254C94.9388 47.7463 95.1465 47.2155 95.2388 46.6155H96.6004C96.5081 47.6309 96.0927 48.5771 95.4004 49.3155C94.5927 50.1925 93.485 50.6309 92.1234 50.6309C91.0157 50.654 89.9542 50.2848 89.1234 49.5463C88.0619 48.6002 87.5311 47.1232 87.5311 45.1386C87.5311 43.6386 87.9234 42.3925 88.7311 41.4232C89.585 40.3848 90.785 39.854 92.3081 39.854C93.6004 39.9002 94.5927 40.2463 95.3081 40.9155Z" fill="#EEA820"/>
<path d="M102.6 40.1772H104.007V44.4003H109.315V40.1772H110.723V50.4003H109.315V45.6234H104.007V50.4003H102.6V40.1772Z" fill="#EEA820"/>
<path d="M26.7237 20.9074V24.8305H10.6852C4.2237 24.8305 1.22369 21.6228 1.22369 15.7151V10.1074H5.14677V15.2998C5.14677 19.269 7.59293 20.9074 11.516 20.9074H19.316V-0.000244141H23.216V20.9074H26.7237ZM16.0391 10.2921H9.25447V6.53052C9.25447 4.38437 10.5929 2.99975 12.7391 2.99975H14.9314V5.26129H12.9699C12.2083 5.26129 11.7468 5.69975 11.7468 6.41514V7.26898H16.0391V10.2921Z" fill="white"/>
<path d="M40.2923 24.8305H26.123V20.9074H30.9692V7.54591H34.8692V20.9305H40.3153L40.2923 24.8305ZM27.5307 2.23822C27.5307 0.922832 28.6153 -0.000244141 29.9769 -0.000244141C31.3384 -0.000244141 32.423 0.922832 32.423 2.23822C32.423 3.71514 31.2923 4.47668 29.9769 4.47668C28.6615 4.47668 27.5307 3.71514 27.5307 2.23822ZM33.6461 2.23822C33.6461 0.922832 34.7076 -0.000244141 36.0923 -0.000244141C37.4769 -0.000244141 38.5384 0.922832 38.5384 2.23822C38.5384 3.71514 37.4076 4.47668 36.0923 4.47668C34.7769 4.47668 33.6461 3.71514 33.6461 2.23822Z" fill="white"/>
<path d="M59.423 19.0158V19.0389C59.423 24.5312 55.9615 28.2005 50.7923 28.2005H50.7692C47.7461 28.2005 45.3 26.9543 43.8 24.8312H39.6923V20.9081H42.2538C42.1615 20.2851 42.0923 19.662 42.0923 19.0389V19.0158C42.0923 13.3851 45.5538 9.62354 50.7461 9.62354H50.7692C55.9615 9.62354 59.423 13.3851 59.423 19.0158ZM55.523 18.9235C55.523 15.6697 53.6307 13.5466 50.7923 13.5466H50.7692C47.9307 13.5466 45.9923 15.6928 45.9923 18.9235V18.9466C45.9923 22.1543 47.9307 24.2774 50.7692 24.2774H50.7923C53.6307 24.2774 55.5461 22.1312 55.5461 18.9466L55.523 18.9235Z" fill="white"/>
<path d="M110.793 7.33887V16.4542C110.793 22.2466 108.231 25.1081 102.762 25.1081C99.831 25.1081 97.431 23.8158 96.4618 21.6235C95.2618 23.6542 93.1156 24.8081 90.1848 24.8081H80.031V20.885H83.7925V9.62348H87.6925V20.9081H90.1618C92.4233 20.9081 94.7771 19.7773 94.7771 16.5696V9.62348H98.7002V17.1235C98.7002 19.6619 100.316 21.2312 102.762 21.2312C105.323 21.2312 106.869 19.7542 106.869 16.8927V7.33887H110.793Z" fill="white"/>
<path d="M78.1384 6.41504H73.8692V10.6843H78.1384V6.41504Z" fill="#EEA820"/>
<path d="M77.0305 20.9077V12.7615H73.1074V20.9077H71.3536C68.1921 20.9077 65.8613 19.1308 65.8613 16.2231V16.2C65.8613 13.2 68.169 11.4231 71.3536 11.4231H71.7921V7.54614C65.9997 7.70768 62.192 11.1 62.192 16.2V16.2231C62.192 21.3923 66.0228 24.8308 71.6767 24.8308H73.1074C73.0613 26.1 72.5074 26.8384 71.6305 27.2538C70.9151 27.5538 70.1536 27.6692 69.369 27.6461C67.6151 27.6231 65.8844 27.3461 64.2228 26.8154L65.0305 30.9461C66.4844 31.3615 68.0074 31.5692 69.5305 31.5692C73.5921 31.5692 76.0382 30.3461 76.7767 26.6538C76.8921 26.0538 76.9844 25.4308 77.0074 24.8308H80.6536V20.9077H77.0305Z" fill="white"/>
</svg>
