<svg width="32" height="33" viewBox="0 0 32 33" fill="none" xmlns="http://www.w3.org/2000/svg">
<g clip-path="url(#clip0_2_1509)">
<path d="M16 28.5C22.6274 28.5 28 23.1274 28 16.5C28 9.87258 22.6274 4.5 16 4.5C9.37258 4.5 4 9.87258 4 16.5C4 23.1274 9.37258 28.5 16 28.5Z" stroke="white" stroke-width="2" stroke-linecap="round" stroke-linejoin="round"/>
<path d="M16 20.5C18.7614 20.5 21 18.2614 21 15.5C21 12.7386 18.7614 10.5 16 10.5C13.2386 10.5 11 12.7386 11 15.5C11 18.2614 13.2386 20.5 16 20.5Z" stroke="white" stroke-width="2" stroke-linecap="round" stroke-linejoin="round"/>
<path d="M7.97461 25.4214C8.727 23.9394 9.87506 22.6947 11.2915 21.8253C12.708 20.9558 14.3376 20.4956 15.9996 20.4956C17.6616 20.4956 19.2912 20.9558 20.7077 21.8253C22.1242 22.6947 23.2722 23.9394 24.0246 25.4214" stroke="white" stroke-width="2" stroke-linecap="round" stroke-linejoin="round"/>
</g>
<defs>
<clipPath id="clip0_2_1509">
<rect width="32" height="32" fill="white" transform="translate(0 0.5)"/>
</clipPath>
</defs>
</svg>
